<?xml version="1.0" standalone="no"?>
<!DOCTYPE svg PUBLIC "-//W3C//DTD SVG 1.1//EN" "http://www.w3.org/Graphics/SVG/1.1/DTD/svg11.dtd" >
<svg xmlns="http://www.w3.org/2000/svg">
<metadata>Generated by IcoMoon</metadata>
<defs>
<font id="icomoon" horiz-adv-x="1024">
<font-face units-per-em="1024" ascent="960" descent="-64" />
<missing-glyph horiz-adv-x="1024" />
<glyph unicode="&#x20;" horiz-adv-x="512" d="" />
<glyph unicode="&#xe900;" glyph-name="app" d="M414.354 960h-353.28c-33.682 0-61.074-27.392-61.074-61.074v-353.28c0-33.682 27.392-61.074 61.074-61.074h353.28c33.682 0 61.074 27.392 61.074 61.074v353.28c0 33.682-27.392 61.074-61.074 61.074zM438.857 545.646c0-13.513-10.99-24.503-24.503-24.503h-353.28c-13.513 0-24.503 10.99-24.503 24.503v353.28c0 13.513 10.99 24.503 24.503 24.503h353.28c13.513 0 24.503-10.99 24.503-24.503v-353.28zM962.926 960h-353.28c-33.682 0-61.074-27.392-61.074-61.074v-353.28c0-33.682 27.392-61.074 61.074-61.074h353.28c33.682 0 61.074 27.392 61.074 61.074v353.28c0 33.682-27.392 61.074-61.074 61.074zM987.429 545.646c0-13.513-10.99-24.503-24.503-24.503h-353.28c-13.513 0-24.503 10.99-24.503 24.503v353.28c0 13.513 10.99 24.503 24.503 24.503h353.28c13.513 0 24.503-10.99 24.503-24.503v-353.28zM414.354 411.429h-353.28c-33.682 0-61.074-27.392-61.074-61.074v-353.28c0-33.682 27.392-61.074 61.074-61.074h353.28c33.682 0 61.074 27.392 61.074 61.074v353.28c0 33.682-27.392 61.074-61.074 61.074zM438.857-2.926c0-13.513-10.99-24.503-24.503-24.503h-353.28c-13.513 0-24.503 10.99-24.503 24.503v353.28c0 13.513 10.99 24.503 24.503 24.503h353.28c13.513 0 24.503-10.99 24.503-24.503v-353.28zM1005.714 192h-201.143v201.143c0 10.112-8.174 18.286-18.286 18.286s-18.286-8.174-18.286-18.286v-201.143h-201.143c-10.112 0-18.286-8.174-18.286-18.286s8.174-18.286 18.286-18.286h201.143v-201.143c0-10.112 8.174-18.286 18.286-18.286s18.286 8.174 18.286 18.286v201.143h201.143c10.112 0 18.286 8.174 18.286 18.286s-8.174 18.286-18.286 18.286z" />
<glyph unicode="&#xe901;" glyph-name="app-alt" d="M407.085 960h-347.082c-33.091 0-60.003-26.911-60.003-60.003v-347.082c0-33.091 26.911-60.003 60.003-60.003h347.082c33.091 0 60.003 26.911 60.003 60.003v347.082c0 33.091-26.911 60.003-60.003 60.003zM598.95 492.912h347.082c33.091 0 60.003 26.911 60.003 60.003v347.082c0 33.091-26.911 60.003-60.003 60.003h-347.082c-33.091 0-60.003-26.911-60.003-60.003v-347.082c0-33.091 26.911-60.003 60.003-60.003zM407.085 421.053h-347.082c-33.091 0-60.003-26.911-60.003-60.003v-347.082c0-33.091 26.911-60.003 60.003-60.003h347.082c33.091 0 60.003 26.911 60.003 60.003v347.082c0 33.091-26.911 60.003-60.003 60.003zM988.070 223.439h-179.649v179.649c0 19.833-16.097 35.93-35.93 35.93s-35.93-16.097-35.93-35.93v-179.649h-179.649c-19.833 0-35.93-16.097-35.93-35.93s16.097-35.93 35.93-35.93h179.649v-179.649c0-19.833 16.097-35.93 35.93-35.93s35.93 16.097 35.93 35.93v179.649h179.649c19.833 0 35.93 16.097 35.93 35.93s-16.097 35.93-35.93 35.93z" />
<glyph unicode="&#xe902;" glyph-name="arrow-down" d="M863.488 688l48.512-51.744-400-428.256-400 428.256 48.256 51.744 351.744-376.256z" />
<glyph unicode="&#xe903;" glyph-name="arrow-left" d="M778.656 57.44l-57.504-53.888-475.84 444.448 475.84 444.448 57.504-53.6-418.048-390.848z" />
<glyph unicode="&#xe904;" glyph-name="arrow-right" d="M245.344 838.56l57.504 53.888 475.84-444.448-475.84-444.448-57.504 53.6 418.048 390.848z" />
<glyph unicode="&#xe905;" glyph-name="arrow-thin-down" d="M747.229 262.458l-202.444-202.446v899.988h-64.509v-901.046l-203.504 203.504-45.614-45.616 280.844-280.842 280.842 280.844z" />
<glyph unicode="&#xe906;" glyph-name="arrow-thin-left" d="M1024 480.253h-900.515l202.973 202.975-45.614 45.614-280.844-280.842 280.844-280.846 45.614 45.616-202.973 202.973h900.515z" />
<glyph unicode="&#xe907;" glyph-name="arrow-thin-right" d="M743.156 728.843l-45.612-45.614 202.973-202.975h-900.517v-64.509h900.517l-202.973-202.973 45.612-45.614 280.844 280.844z" />
<glyph unicode="&#xe908;" glyph-name="arrow-thin-up" d="M792.843 679.158l-280.842 280.842-280.844-280.844 45.614-45.614 203.504 203.504v-901.046h64.509v899.988l202.444-202.446z" />
<glyph unicode="&#xe909;" glyph-name="arrow-up" d="M863.488 208l48.512 51.744-400 428.256-400-428.256 48.256-51.744 351.744 376.256z" />
<glyph unicode="&#xe90a;" glyph-name="bag" d="M808.193 719.916h-107.618v51.511c0 103.978-84.595 188.573-188.575 188.573-103.978 0-188.573-84.595-188.573-188.573v-51.511h-107.618l-72.723-783.916h737.83l-72.723 783.916zM367.002 771.427c0 79.956 65.041 144.998 144.998 144.998 79.96 0 145-65.043 145-144.998v-51.511h-289.999v51.511zM255.511 676.342h67.914v-127.977h-24.894v-43.574h93.36v43.574h-24.892v127.977h289.999v-127.977h-24.894v-43.574h93.364v43.574h-24.894v127.977h67.914l64.637-696.767h-642.253l64.637 696.767z" />
<glyph unicode="&#xe90b;" glyph-name="cart" d="M1019.509 685.894c-4.127 5.383-10.533 8.533-17.297 8.533h-0.213l-736.101 2.077-52.090 155.558c-2.978 8.894-11.297 14.875-20.658 14.875h-171.361c-12.046 0-21.788-9.745-21.788-21.788s9.743-21.786 21.788-21.786h155.681l186.702-557.555c2.978-8.892 11.3-14.871 20.658-14.871h563.704v-111.852h-41.98c-11.694 31.182-41.969 53.043-76.405 53.043-34.939 0-64.807-22.095-76.386-53.043h-221.527c-11.58 30.948-41.447 53.043-76.386 53.043-44.958 0-81.531-36.574-81.531-81.533s36.574-81.531 81.531-81.531c39.802 0 73.013 28.674 80.11 66.447h214.077c7.097-37.773 40.308-66.447 80.11-66.447 39.821 0 73.034 28.674 80.131 66.447h60.038c12.041 0 21.788 9.745 21.788 21.786v155.426c0 12.043-9.745 21.788-21.788 21.788h-51.66l104.532 372.234c1.854 6.595 0.493 13.703-3.678 19.149zM455.849 72.637c-20.936 0-37.957 17.023-37.957 37.957 0 20.938 17.021 37.959 37.957 37.959s37.957-17.021 37.957-37.959c0.002-20.933-17.021-37.957-37.957-37.957zM830.148 72.637c-20.936 0-37.957 17.023-37.957 37.957 0 20.938 17.023 37.959 37.957 37.959 18.85 0 35.021-14.023 37.618-32.618 0.234-1.743 0.362-3.532 0.362-5.339 0-20.936-17.044-37.959-37.98-37.959zM873.399 294.511h-472.889l-120.004 358.371 692.876-2.328-99.982-356.043z" />
<glyph unicode="&#xe90c;" glyph-name="check-circle" d="M512 960c-282.309 0-512-229.671-512-512s229.691-512 512-512 512 229.671 512 512-229.691 512-512 512zM512-24.615c-260.588 0-472.615 212.027-472.615 472.615s212.027 472.615 472.615 472.615 472.615-212.027 472.615-472.615-212.027-472.615-472.615-472.615zM753.27 657.999l-302.651-340.48-182.331 145.861c-8.468 6.794-20.894 5.396-27.668-3.072-6.794-8.507-5.415-20.894 3.072-27.687l196.923-157.538c3.623-2.895 7.975-4.313 12.308-4.313 5.435 0 10.85 2.245 14.73 6.617l315.077 354.462c7.227 8.113 6.498 20.578-1.634 27.786-8.153 7.247-20.578 6.518-27.825-1.634z" />
<glyph unicode="&#xe90d;" glyph-name="checkout" d="M963.034 713.561h-0.018l-41.42 4.454v28.654h-921.596v-102.4h887.463v-34.134h-887.463v-358.399c0-30.856 20.702-56.696 48.844-65.126-0.018-15.548 4.898-30.584 14.796-42.872 11.434-14.2 27.734-23.074 45.772-25.020l788.119-88.456c2.458-0.274 4.898-0.392 7.322-0.392 34.406 0 64.086 26.026 67.874 61.202l50.876 547.31c4.030 37.41-23.14 71.15-60.568 75.178zM529.064 455.94c0 9.438 7.646 17.066 17.066 17.066h273.067c9.42 0 17.066-7.628 17.066-17.066v-153.001c0-9.438-7.646-17.066-17.066-17.066h-273.065c-9.42 0-17.066 7.628-17.066 17.066v153.001zM290.133 541.872h136.533c9.42 0 17.066-7.646 17.066-17.066 0-9.438-7.646-17.066-17.066-17.066h-136.533c-9.42 0-17.066 7.628-17.066 17.066-0.002 9.42 7.644 17.066 17.066 17.066zM443.732 456.538c0-9.438-7.646-17.066-17.066-17.066h-51.2c-9.42 0-17.066 7.628-17.066 17.066 0 9.42 7.646 17.066 17.066 17.066h51.2c9.42 0 17.066-7.646 17.066-17.066zM85.334 541.872h136.533c9.42 0 17.066-7.646 17.066-17.066 0-9.438-7.646-17.066-17.066-17.066h-136.533c-9.42 0-17.066 7.628-17.066 17.066-0.002 9.42 7.644 17.066 17.066 17.066zM68.266 456.538c0 9.42 7.646 17.066 17.066 17.066h221.867c9.42 0 17.066-7.646 17.066-17.066 0-9.438-7.646-17.066-17.066-17.066h-221.865c-9.422 0-17.068 7.628-17.068 17.066zM989.64 641.795l-50.874-547.292c-2.014-18.722-18.774-32.308-37.512-30.31l-788.121 88.456c-9.062 0.972-17.204 5.41-22.92 12.51-4.284 5.324-6.826 11.656-7.424 18.312h770.539c37.65 0 68.266 30.6 68.266 68.266v431.938l37.786-4.044c18.706-2.030 32.292-18.892 30.26-37.836zM563.202 438.882h238.933v-118.886h-238.933v118.886zM921.6 797.861c0 37.65-30.618 68.266-68.266 68.266h-785.065c-37.65 0-68.266-30.618-68.266-68.266v-17.066h921.596v17.066z" />
<glyph unicode="&#xe90e;" glyph-name="check-square" d="M902.508 595.525c-9.598 0-17.356-7.758-17.356-17.356v-555.39h-850.441v850.441h850.441v-17.356c0-9.598 7.758-17.356 17.356-17.356s17.356 7.758 17.356 17.356v52.068h-919.864v-919.864h919.864v590.102c0 9.598-7.758 17.356-17.356 17.356zM1018.915 833.423c-6.786 6.786-17.755 6.786-24.541 0l-525.763-525.763-226.842 226.842c-6.786 6.786-17.755 6.786-24.541 0s-6.786-17.755 0-24.541l239.113-239.113c3.384-3.384 7.828-5.085 12.271-5.085s8.886 1.701 12.271 5.085l538.034 538.034c6.786 6.786 6.786 17.755 0 24.541z" />
<glyph unicode="&#xe90f;" glyph-name="chevron-down" d="M511.999 148.392l-458.77 457.277-53.229-53.402 511.999-510.332 512.001 510.332-53.229 53.402zM1024 800.664l-53.229 53.402-458.773-457.277-458.77 457.277-53.229-53.402 511.999-510.332z" />
<glyph unicode="&#xe910;" glyph-name="chevron-left" d="M669.668 906.774l-53.402 53.226-510.334-512 510.334-512 53.402 53.226-457.278 458.774zM918.065 906.774l-53.402 53.226-510.334-512 510.334-512 53.402 53.226-457.278 458.774z" />
<glyph unicode="&#xe911;" glyph-name="chevron-right" d="M407.732 960l-53.402-53.226 457.281-458.774-457.281-458.774 53.402-53.226 510.334 512zM159.334 960l-53.402-53.226 457.281-458.774-457.281-458.774 53.402-53.226 510.334 512z" />
<glyph unicode="&#xe912;" glyph-name="chevron-up" d="M511.999 747.611l458.773-457.28 53.229 53.402-512.001 510.332-511.999-510.332 53.229-53.402zM0 95.336l53.229-53.402 458.77 457.28 458.773-457.28 53.229 53.402-512.001 510.332z" />
<glyph unicode="&#xe913;" glyph-name="circle" d="M512 960c-282.317 0-512-229.683-512-512s229.683-512 512-512 512 229.683 512 512-229.683 512-512 512zM512-29.867c-263.492 0-477.867 214.374-477.867 477.867s214.374 477.867 477.867 477.867 477.867-214.374 477.867-477.867-214.374-477.867-477.867-477.867z" />
<glyph unicode="&#xe914;" glyph-name="close" d="M1024 913.461l-46.539 46.539-465.461-465.461-465.461 465.461-46.539-46.539 465.461-465.461-465.461-465.461 46.539-46.539 465.461 465.461 465.461-465.461 46.539 46.539-465.461 465.461z" />
<glyph unicode="&#xe915;" glyph-name="coffee" d="M900.664 840.125h-33.93l-38.539 90.914c-7.461 17.594-24.625 28.961-43.734 28.961h-544.922c-19.109 0-36.273-11.367-43.734-28.961l-38.539-90.914h-33.93c-21.695 0-39.336-17.648-39.336-39.336v-89.453c0-21.695 17.641-39.336 39.336-39.336h25.43l95.703-694.977c3.219-23.383 23.453-41.023 47.063-41.023h440.938c23.609 0 43.844 17.633 47.063 41.023l95.703 694.977h25.43c21.695 0 39.336 17.641 39.336 39.336v89.453c0 21.688-17.641 39.336-39.336 39.336zM739.906-17.516c-0.508-3.695-3.703-6.484-7.438-6.484h-440.938c-3.734 0-6.93 2.789-7.438 6.484l-94.953 689.516h645.719zM900 712h-776v88.125h449.484c11.047 0 20 8.953 20 20s-8.953 20-20 20h-372.773l31.922 75.297c1.172 2.781 3.891 4.578 6.906 4.578h544.922c3.016 0 5.727-1.797 6.906-4.578l31.922-75.297h-89.805c-11.047 0-20-8.953-20-20s8.953-20 20-20h119.945c0.023 0 0.039-0.008 0.063-0.008 0.031 0 0.070 0.008 0.102 0.008h46.406zM296 336.367c0-119.102 96.898-216 216-216s216 96.898 216 216c0 119.102-96.898 216-216 216s-216-96.898-216-216zM512 512.367c97.047 0 176-78.953 176-176s-78.953-176-176-176-176 78.953-176 176c0 97.047 78.953 176 176 176zM415.836 240.203c25.688-25.688 59.836-39.836 96.164-39.836s70.477 14.148 96.164 39.836 39.836 59.836 39.836 96.164c0 36.328-14.148 70.484-39.836 96.164-25.688 25.688-59.836 39.836-96.164 39.836s-70.477-14.148-96.164-39.836c-25.688-25.68-39.836-59.836-39.836-96.164s14.148-70.477 39.836-96.164zM579.883 268.484c-18.133-18.133-42.242-28.117-67.883-28.117-21.836 0-42.539 7.266-59.406 20.609 2.148 30.906 27.961 55.391 59.406 55.391 39.070 0 72.945 22.633 89.234 55.469 4.43-11.141 6.766-23.125 6.766-35.469 0-25.641-9.984-49.75-28.117-67.883zM444.117 404.25c18.133 18.133 42.242 28.117 67.883 28.117 21.836 0 42.539-7.258 59.406-20.609-2.148-30.898-27.961-55.391-59.406-55.391-39.070 0-72.945-22.633-89.234-55.469-4.43 11.141-6.766 23.125-6.766 35.469 0 25.641 9.984 49.75 28.117 67.883zM653.477 840.117c-5.258 0-10.414-2.141-14.133-5.859-3.727-3.719-5.867-8.859-5.867-14.141 0-5.258 2.141-10.414 5.867-14.141 3.719-3.719 8.875-5.859 14.133-5.859 5.266 0 10.422 2.141 14.141 5.859 3.742 3.727 5.859 8.883 5.859 14.141 0 5.266-2.117 10.422-5.859 14.141-3.719 3.719-8.859 5.859-14.141 5.859z" />
<glyph unicode="&#xe916;" glyph-name="compare" d="M105.941 279.862c-44.91 108.426-44.913 227.851 0 336.276 37.734 91.094 103.377 165.249 187.698 213.267v-181.249h72.495v275.468h-275.47v-72.495h105.734c-176.404-138.136-247.265-382.141-157.434-599.012 34.234-82.649 89.579-155.040 160.054-209.35 68.324-52.653 149.516-87.479 234.791-100.712l11.118 71.639c-153.068 23.752-279.789 123.253-338.985 266.167zM984.761 252.118c52.319 126.315 52.319 265.447 0 391.761-34.234 82.649-89.579 155.040-160.054 209.348-68.326 52.655-149.518 87.482-234.793 100.714l-11.116-71.639c153.065-23.752 279.786-123.253 338.983-266.167 44.91-108.426 44.91-227.851 0-336.276-37.731-91.094-103.377-165.249-187.696-213.267v181.249h-72.495v-275.468h275.468v72.495h-105.419c68.756 53.687 122.833 124.469 157.123 207.25z" />
<glyph unicode="&#xe917;" glyph-name="contract" d="M664.132 960h-553.199v-1024h802.133v775.066l-248.934 248.934zM674.133 901.734l180.668-180.668h-180.668v180.668zM145.067-29.867v955.733h494.933v-238.933h238.933v-716.8h-733.867zM281.6 669.867h153.6c9.438 0 17.067 7.629 17.067 17.067s-7.629 17.067-17.067 17.067h-153.6c-9.438 0-17.067-7.629-17.067-17.067s7.629-17.067 17.067-17.067zM281.6 533.333h85.333c9.438 0 17.067 7.629 17.067 17.067s-7.629 17.067-17.067 17.067h-85.333c-9.438 0-17.067-7.629-17.067-17.067s7.629-17.067 17.067-17.067zM537.6 533.333h119.467c9.438 0 17.067 7.629 17.067 17.067s-7.629 17.067-17.067 17.067h-119.467c-9.438 0-17.067-7.629-17.067-17.067s7.629-17.067 17.067-17.067zM440.149 562.347c-3.243-3.072-4.949-7.492-4.949-11.947 0-4.437 1.707-8.875 4.949-12.117 3.226-3.072 7.68-4.949 12.117-4.949s8.875 1.724 12.117 5.12c3.072 3.089 4.949 7.509 4.949 11.947 0 4.454-1.877 8.892-4.949 12.117-6.485 6.315-17.92 6.315-24.235-0.171zM742.4 533.333c4.437 0 8.875 1.877 12.117 4.949 3.072 3.243 4.949 7.68 4.949 12.117 0 4.454-1.877 8.892-4.949 12.117-6.485 6.315-17.749 6.315-24.235 0-3.089-3.226-4.949-7.663-4.949-12.117 0-4.437 1.86-8.875 4.949-12.117 3.226-3.072 7.68-4.949 12.117-4.949zM486.4 430.933h-119.467c-9.438 0-17.067-7.629-17.067-17.067s7.629-17.067 17.067-17.067h119.467c9.438 0 17.067 7.629 17.067 17.067s-7.629 17.067-17.067 17.067zM281.6 396.8c4.437 0 8.875 1.877 12.117 4.949 3.226 3.243 4.949 7.68 4.949 12.117 0 4.454-1.724 8.892-4.949 12.117-6.485 6.315-17.749 6.315-24.235 0-3.243-3.226-4.949-7.492-4.949-12.117 0-4.437 1.86-8.875 4.949-12.117 3.226-3.072 7.68-4.949 12.117-4.949zM335.275 274.5c-37.376-19.456-49.954-56.678-54.545-95.266-7.066 5.922-14.131 11.827-21.197 17.749-16.725 14.012-40.994-10.001-24.132-24.149 15.957-13.363 31.932-26.743 47.889-40.124 11.23-9.404 28.621-3.465 29.133 12.066 1.246 36.966 2.987 80.93 40.073 100.233 19.49 10.155 2.253 39.629-17.22 29.491zM448.768 206.421c-23.637-5.478-50.534-35.55-67.174-1.809-9.711 19.695-39.168 2.423-29.474-17.22 8.823-17.903 25.6-30.447 45.551-32.973 10.138-1.28 19.302 0.154 28.809 3.857 6.98 2.714 33.058 22.323 38.69 12.237 10.718-19.183 40.209-1.98 29.474 17.22-9.165 16.418-27.716 22.903-45.875 18.688zM797.781 370.978c-3.977 1.417-5.734 4.42-6.434 6.093-0.683 1.673-1.587 5.052 0.239 8.875 8.277 17.442 4.813 37.53-8.841 51.2-13.67 13.636-33.775 17.118-51.183 8.841-3.857-1.826-7.236-0.922-8.892-0.239-1.69 0.7-4.676 2.458-6.093 6.434-6.468 18.21-23.125 29.952-42.445 29.952s-35.977-11.742-42.445-29.952c-1.417-3.977-4.42-5.734-6.093-6.434-1.655-0.683-5.052-1.604-8.875 0.239-17.425 8.243-37.513 4.813-51.2-8.841-13.653-13.67-17.118-33.758-8.841-51.183 1.809-3.84 0.922-7.219 0.239-8.892-0.7-1.69-2.458-4.676-6.434-6.093-18.21-6.468-29.952-23.125-29.952-42.445s11.742-35.977 29.952-42.445c3.977-1.417 5.734-4.42 6.434-6.093 0.683-1.673 1.587-5.052-0.239-8.875-8.277-17.442-4.813-37.53 8.841-51.2 6.605-6.588 14.711-10.752 23.279-12.425v-210.295l85.333 85.333 85.333-85.333v210.313c8.567 1.655 16.691 5.803 23.279 12.407 13.653 13.67 17.118 33.758 8.841 51.183-1.809 3.84-0.922 7.219-0.239 8.892 0.7 1.69 2.458 4.676 6.434 6.093 18.21 6.468 29.952 23.125 29.952 42.445s-11.742 35.977-29.952 42.445zM674.133 130.799l-51.2-51.2v132.403c0.154-0.017 0.307-0.034 0.444-0.068 0.853-0.171 1.673-0.375 2.219-0.614 0.836-0.358 2.014-0.973 3.14-1.98 1.143-1.024 2.253-2.458 2.953-4.454 6.468-18.21 23.125-29.952 42.445-29.952s35.977 11.742 42.445 29.952c0.7 1.997 1.809 3.43 2.953 4.454s2.304 1.638 3.14 1.98c0.546 0.222 1.348 0.444 2.202 0.614 0.137 0.017 0.29 0.051 0.444 0.068v-132.386l-51.183 51.183zM786.347 318.242c-11.981-4.25-21.658-13.431-26.522-25.19-4.881-11.759-4.557-25.105 0.922-36.625 2.987-6.263-0.495-10.752-2.15-12.39-1.348-1.382-4.796-3.823-9.574-2.901l-3.755 1.178c-1.553 0.7-3.191 1.075-4.796 1.57-1.195 0.375-2.355 0.887-3.567 1.178-1.673 0.375-3.396 0.478-5.103 0.666-1.382 0.154-2.731 0.444-4.113 0.478-1.655 0.034-3.294-0.239-4.932-0.375-1.417-0.137-2.85-0.102-4.267-0.375-3.021-0.563-5.99-1.434-8.875-2.628 0 0-0.017 0-0.034-0.017v0c-0.751-0.307-1.382-0.802-2.116-1.143-2.116-1.024-4.25-2.031-6.178-3.362-2.304-1.587-4.403-3.465-6.366-5.444-0.222-0.222-0.512-0.393-0.734-0.631-4.301-4.523-7.663-9.95-9.796-15.94-2.287-6.519-7.936-7.219-10.257-7.219s-7.97 0.7-10.291 7.253c-2.133 6.007-5.495 11.418-9.796 15.94-0.171 0.188-0.393 0.307-0.58 0.495-2.014 2.048-4.164 3.942-6.537 5.581-1.843 1.28-3.908 2.236-5.939 3.226-0.802 0.393-1.519 0.939-2.355 1.28v0c-0.017 0-0.017 0.017-0.017 0.017-0.358 0.154-0.734 0.188-1.092 0.324-2.492 0.956-5.018 1.758-7.595 2.253-2.082 0.41-4.147 0.495-6.229 0.614-0.768 0.034-1.536 0.222-2.304 0.222-0.051 0-0.085-0.017-0.137-0.017-6.383 0.017-12.578-1.229-17.869-3.806l-3.874-1.212c-4.898-1.109-8.465 1.417-9.865 2.833-1.655 1.638-5.137 6.11-2.15 12.407 5.461 11.503 5.803 24.832 0.922 36.608-4.864 11.742-14.541 20.941-26.522 25.19-6.537 2.287-7.236 7.936-7.236 10.257s0.7 7.97 7.253 10.291c11.981 4.25 21.658 13.431 26.522 25.19 4.881 11.759 4.557 25.105-0.922 36.625-2.987 6.263 0.495 10.752 2.15 12.39 1.638 1.655 6.093 5.103 12.407 2.15 11.486-5.461 24.832-5.837 36.608-0.922 11.742 4.864 20.941 14.541 25.19 26.522 2.287 6.519 7.936 7.219 10.257 7.219s7.97-0.7 10.291-7.253c4.267-11.981 13.431-21.658 25.19-26.522 11.742-4.915 25.105-4.557 36.625 0.922 6.246 3.021 10.769-0.495 12.39-2.15 1.655-1.638 5.137-6.11 2.15-12.407-5.461-11.503-5.803-24.832-0.922-36.608 4.864-11.742 14.541-20.941 26.522-25.19 6.519-2.287 7.219-7.936 7.219-10.257s-0.7-7.97-7.253-10.291z" />
<glyph unicode="&#xe918;" glyph-name="copy" d="M832 667.428v109.714c-0.034 30.284-24.574 54.824-54.858 54.858h-73.142v-54.858c-0.034-30.284-24.574-54.824-54.858-54.858h-402.284c-30.284 0.034-54.824 24.576-54.858 54.858v54.858h-73.142c-30.284-0.034-54.824-24.574-54.858-54.858v-713.142c0.034-30.284 24.574-54.824 54.858-54.858h219.428v603.43c0.034 30.284 24.574 54.824 54.858 54.858h438.856zM576 941.714c-0.014 10.094-8.192 18.272-18.286 18.286h-219.428c-10.094-0.014-18.272-8.192-18.286-18.286v-36.572h256v36.572zM246.858 758.858h402.286c10.098 0 18.286 8.186 18.286 18.286v73.142c0 10.098-8.186 18.286-18.286 18.286h-402.286c-10.098 0-18.286-8.186-18.286-18.286v-73.142c0-10.1 8.186-18.286 18.286-18.286zM941.714 630.858h-548.572c-10.094-0.014-18.272-8.192-18.286-18.286v-658.286c0.014-10.094 8.192-18.272 18.286-18.286h548.572c10.094 0.014 18.272 8.192 18.286 18.286v658.286c-0.014 10.092-8.192 18.272-18.286 18.286zM832 137.142h-329.142c-10.098 0-18.286 8.186-18.286 18.286 0 10.098 8.186 18.286 18.286 18.286h329.142c10.098 0 18.286-8.186 18.286-18.286 0-10.098-8.188-18.286-18.286-18.286zM832 228.572h-329.142c-10.098 0-18.286 8.186-18.286 18.286 0 10.098 8.186 18.286 18.286 18.286h329.142c10.098 0 18.286-8.186 18.286-18.286s-8.188-18.286-18.286-18.286zM832 320h-329.142c-10.098 0-18.286 8.186-18.286 18.286 0 10.098 8.186 18.286 18.286 18.286h329.142c10.098 0 18.286-8.186 18.286-18.286s-8.188-18.286-18.286-18.286zM832 411.428h-329.142c-10.098 0-18.286 8.186-18.286 18.286 0 10.098 8.186 18.286 18.286 18.286h329.142c10.098 0 18.286-8.186 18.286-18.286 0-10.098-8.188-18.286-18.286-18.286z" />
<glyph unicode="&#xe919;" glyph-name="divide" d="M0 496.762h1024v-97.524h-1024v97.524zM512 643.048c67.218 0 121.905 54.686 121.905 121.905s-54.686 121.905-121.905 121.905-121.905-54.686-121.905-121.905 54.686-121.905 121.905-121.905zM512 252.952c-67.218 0-121.905-54.686-121.905-121.905s54.686-121.905 121.905-121.905 121.905 54.686 121.905 121.905-54.686 121.905-121.905 121.905z" />
<glyph unicode="&#xe91a;" glyph-name="dot-circle" d="M512 848c221.064 0 400-178.902 400-400 0-221.064-178.902-400-400-400-221.064 0-400 178.902-400 400 0 221.064 178.902 400 400 400zM512 944c-273.934 0-496-222.066-496-496s222.066-496 496-496 496 222.066 496 496-222.066 496-496 496zM512 608c-88.366 0-160-71.634-160-160s71.634-160 160-160 160 71.634 160 160-71.634 160-160 160z" />
<glyph unicode="&#xe91b;" glyph-name="download" d="M957.772 392.34c-3.327 7.975-11.090 13.18-19.705 13.18h-233.692v533.154c0 11.772-9.555 21.327-21.327 21.327h-341.22c-11.772 0-21.327-9.555-21.327-21.327v-533.156h-234.588c-8.615 0-16.379-5.204-19.705-13.138-3.285-7.975-1.494-17.146 4.606-23.246l425.458-426.865c4.009-4.009 9.427-6.27 15.099-6.27s11.090 2.261 15.099 6.228l426.695 426.865c6.1 6.102 7.933 15.271 4.606 23.248z" />
<glyph unicode="&#xe91c;" glyph-name="envelope" d="M1024 102.673v687.616l-350.174-351.437zM0 790.34v-687.667l350.191 336.196zM23.671 814.933l358.434-359.765c2.065-0.87 8.038-7.083 8.823-8.858l101.393-101.769c10.837-10.086 28.535-10.069 39.817 0.427l100.881 101.257c0.785 1.792 6.827 8.073 8.909 8.943l358.434 359.765h-976.691zM649.728 414.652l-93.867-94.208c-12.459-11.605-28.279-17.391-44.032-17.391-15.599 0-31.113 5.666-43.23 16.947l-94.31 94.652-347.511-333.585h970.445l-347.494 333.585z" />
<glyph unicode="&#xe91d;" glyph-name="square" d="M0 960v-1024h1024v1024h-1024zM989.867-29.867h-955.733v955.733h955.733v-955.733z" />
<glyph unicode="&#xe91e;" glyph-name="truck" d="M1008.666 572.38l-148.233 163.567c-11.926 11.926-27.261 18.743-42.595 18.743h-170.382v35.78c0 37.484-28.966 66.449-64.746 66.449h-516.26c-37.484-0.002-66.449-28.966-66.449-66.451v-589.524c0-32.372 27.261-59.635 59.635-59.635h26.761c8.136-58.213 57.41-102.23 118.065-102.23s109.929 44.017 118.065 102.23h377.247c8.136-58.213 57.41-102.23 118.065-102.23s109.929 44.017 118.065 102.23h88.095v391.881c0 15.334-5.111 28.966-15.334 39.189zM981.405 550.229c5.111-3.408 6.815-10.223 6.815-15.334v-52.818h-255.574v170.382h155.048l93.712-102.23zM34.077 499.114h238.537c10.223 0 17.038 6.815 17.038 17.038s-6.815 17.038-17.038 17.038h-238.537v51.115h170.382c10.223 0 17.038 6.815 17.038 17.038s-6.815 17.038-17.038 17.038h-170.382v172.089c0 18.743 13.631 32.372 32.372 32.372h514.557c18.743 0 32.372-15.334 32.372-32.372v-410.622h-579.301v119.267zM204.459 73.157c-47.707 0-85.192 37.484-85.192 85.192s37.484 85.192 85.192 85.192c47.707 0 85.192-37.484 85.192-85.192s-37.486-85.192-85.192-85.192zM613.378 175.387h-290.853c-7.629 54.587-51.436 96.671-106.878 101.703-0.405 0.038-0.817 0.058-1.224 0.092-1.396 0.112-2.789 0.228-4.199 0.294-1.911 0.092-3.832 0.144-5.764 0.144s-3.854-0.052-5.764-0.144c-1.41-0.066-2.803-0.18-4.199-0.294-0.407-0.034-0.819-0.054-1.224-0.092-55.442-5.032-99.249-47.116-106.878-101.703h-26.759c-13.631 0-25.557 11.926-25.557 25.557v144.825h579.301v-170.382zM817.837 73.157c-47.707 0-85.192 37.484-85.192 85.192s37.484 85.192 85.192 85.192c47.707 0 85.192-37.484 85.192-85.192s-37.486-85.192-85.192-85.192zM935.903 175.387c-7.629 54.587-51.436 96.671-106.878 101.703-0.405 0.038-0.817 0.058-1.224 0.092-1.396 0.112-2.789 0.228-4.199 0.294-1.911 0.092-3.832 0.144-5.764 0.144s-3.854-0.052-5.764-0.144c-1.41-0.066-2.803-0.18-4.199-0.294-0.407-0.034-0.819-0.054-1.224-0.092-55.442-5.032-99.249-47.116-106.878-101.703h-52.319v545.226h170.384c5.111 0 11.926-3.408 17.038-6.815l24.421-27.261h-131.762c-15.334 0-28.966-13.631-28.966-28.966v-180.605c0-15.334 13.631-28.966 28.966-28.966h260.686v-85.192h-85.192c-10.223 0-17.038-6.815-17.038-17.038s6.815-17.038 17.038-17.038h85.192v-153.345h-52.317zM204.459 192.425c-18.743 0-34.077-15.334-34.077-34.077s15.334-34.077 34.077-34.077c18.743 0 34.077 15.334 34.077 34.077s-15.334 34.077-34.077 34.077zM817.837 192.425c-18.743 0-34.077-15.334-34.077-34.077s15.334-34.077 34.077-34.077 34.077 15.334 34.077 34.077-15.334 34.077-34.077 34.077z" />
<glyph unicode="&#xe91f;" glyph-name="facebook" d="M767.965 959.787l-132.79 0.213c-149.185 0-245.595-98.913-245.595-252.008v-116.192h-133.514c-11.537 0-20.88-9.353-20.88-20.891v-168.35c0-11.537 9.353-20.88 20.88-20.88h133.514v-424.8c0-11.537 9.343-20.88 20.88-20.88h174.198c11.537 0 20.88 9.353 20.88 20.88v424.8h156.109c11.537 0 20.88 9.343 20.88 20.88l0.064 168.35c0 5.54-2.205 10.845-6.115 14.765s-9.236 6.125-14.776 6.125h-156.163v98.498c0 47.342 11.282 71.375 72.952 71.375l89.453 0.032c11.527 0 20.869 9.353 20.869 20.88v156.322c0 11.516-9.332 20.859-20.848 20.88z" />
<glyph unicode="&#xe920;" glyph-name="gear" d="M1008.602 514.029l-59.316 11.416c-34.93 6.713-63.545 30.473-76.516 63.602-13.009 33.090-8.211 69.973 12.838 98.664l37.243 50.802c5.537 7.528 4.722 17.996-1.896 24.614l-80.441 80.441c-6.428 6.428-16.517 7.396-24.045 2.295l-50.024-33.868c-29.431-19.949-66.465-23.343-99.063-9.14-32.597 14.222-55.296 43.71-60.7 78.848l-9.576 62.236c-1.422 9.235-9.368 16.062-18.735 16.062h-113.778c-9.083 0-16.915-6.447-18.622-15.398l-14.734-76.61c-6.58-34.152-29.677-62.502-61.819-75.795-32.123-13.35-68.513-9.614-97.299 9.88l-64.588 43.767c-7.528 5.082-17.617 4.134-24.045-2.295l-80.46-80.441c-6.618-6.618-7.415-17.067-1.896-24.633l37.243-50.802c21.030-28.672 25.828-65.555 12.838-98.664-13.009-33.090-41.605-56.87-76.535-63.583l-59.316-11.416c-8.913-1.688-15.36-9.519-15.36-18.603v-113.778c0-9.349 6.827-17.313 16.081-18.735l62.255-9.576c35.138-5.404 64.626-28.084 78.829-60.681 14.222-32.616 10.809-69.651-9.14-99.1l-33.868-50.024c-5.101-7.509-4.134-17.617 2.295-24.045l80.441-80.441c6.618-6.599 17.048-7.452 24.614-1.896l50.802 37.243c28.672 21.030 65.555 25.884 98.645 12.838 33.109-12.99 56.889-41.586 63.602-76.516l11.416-59.316c1.707-8.932 9.538-15.379 18.622-15.379h113.778c9.368 0 17.332 6.827 18.735 16.081l6.732 43.785c5.537 35.954 28.881 65.707 62.464 79.607 33.583 13.843 71.13 9.387 100.447-12.136l35.726-26.188c7.566-5.556 18.015-4.703 24.614 1.896l80.441 80.441c6.428 6.428 7.396 16.517 2.295 24.045l-33.868 50.024c-19.949 29.449-23.362 66.484-9.14 99.081 14.222 32.616 43.691 55.296 78.848 60.7l62.236 9.576c9.273 1.403 16.1 9.368 16.1 18.716v113.778c0 9.083-6.447 16.915-15.398 18.622zM986.074 397.9l-46.175-7.111c-48.071-7.396-88.386-38.419-107.842-83.020-19.437-44.582-14.772-95.232 12.516-135.509l25.088-37.054-57.875-57.875-22.604 16.574c-40.107 29.412-91.439 35.556-137.406 16.574-45.928-19.039-77.881-59.714-85.428-108.866l-4.248-27.686h-81.844l-8.457 43.918c-9.178 47.787-41.719 86.907-87.002 104.695-45.227 17.768-95.706 11.169-134.921-17.56l-37.679-27.629-57.875 57.875 25.107 37.054c27.269 40.258 31.953 90.927 12.497 135.509s-59.771 75.605-107.842 83.001l-46.156 7.111v81.825l43.937 8.439c47.768 9.178 86.888 41.7 104.676 86.983 17.768 45.284 11.207 95.725-17.56 134.959l-27.629 37.698 57.875 57.875 51.636-34.987c39.386-26.681 89.145-31.763 133.082-13.521 43.937 18.204 75.548 56.965 84.537 103.689l11.776 61.212h81.844l7.111-46.175c7.396-48.071 38.438-88.386 83.020-107.842s95.232-14.753 135.509 12.497l37.054 25.088 57.875-57.875-27.629-37.66c-28.767-39.215-35.328-89.676-17.541-134.959 17.768-45.284 56.889-77.805 104.676-86.983l43.899-8.42v-81.844zM521.481 637.63c-109.796 0-199.111-89.316-199.111-199.111s89.316-199.111 199.111-199.111 199.111 89.316 199.111 199.111-89.316 199.111-199.111 199.111zM521.481 277.333c-88.879 0-161.185 72.306-161.185 161.185s72.306 161.185 161.185 161.185 161.185-72.306 161.185-161.185-72.306-161.185-161.185-161.185zM521.481 542.815c-57.515 0-104.296-46.801-104.296-104.296s46.782-104.296 104.296-104.296 104.296 46.801 104.296 104.296-46.782 104.296-104.296 104.296zM521.481 372.148c-36.599 0-66.37 29.772-66.37 66.37s29.772 66.37 66.37 66.37 66.37-29.772 66.37-66.37-29.772-66.37-66.37-66.37z" />
<glyph unicode="&#xe921;" glyph-name="gear-alt" d="M1008.602 514.029l-59.316 11.416c-34.93 6.713-63.545 30.473-76.516 63.602-13.009 33.090-8.211 69.973 12.838 98.664l37.243 50.802c5.537 7.528 4.722 17.996-1.896 24.614l-80.441 80.441c-6.428 6.428-16.517 7.396-24.045 2.295l-50.024-33.868c-17.256-11.681-37.129-17.863-57.515-17.863-51.447 0-94.436 36.807-102.267 87.552l-9.576 62.255c-1.384 9.235-9.349 16.062-18.716 16.062h-113.778c-9.083 0-16.915-6.466-18.622-15.398l-14.734-76.629c-9.33-48.526-52.072-83.74-101.585-83.74-20.385 0-40.296 6.163-57.515 17.844l-64.607 43.767c-7.528 5.082-17.617 4.134-24.045-2.295l-80.46-80.441c-6.618-6.618-7.415-17.067-1.896-24.633l37.243-50.802c21.030-28.672 25.828-65.555 12.838-98.664-13.009-33.090-41.605-56.87-76.535-63.583l-59.316-11.416c-8.913-1.688-15.36-9.519-15.36-18.603v-113.778c0-9.349 6.827-17.313 16.081-18.735l62.255-9.576c35.138-5.404 64.626-28.084 78.829-60.681 14.222-32.616 10.809-69.651-9.14-99.1l-33.868-50.024c-5.101-7.509-4.134-17.617 2.295-24.045l80.441-80.441c6.618-6.599 17.048-7.452 24.614-1.896l50.802 37.243c17.901 13.122 38.874 20.082 60.625 20.082 49.55 0 92.293-35.214 101.623-83.74l11.416-59.335c1.707-8.913 9.538-15.379 18.622-15.379h113.778c9.368 0 17.313 6.827 18.735 16.081l6.732 43.785c8.837 57.496 58.159 87.571 102.324 87.571 21.732 0 42.667-6.94 60.606-20.101l35.726-26.188c7.566-5.556 18.015-4.703 24.614 1.896l80.441 80.441c6.428 6.428 7.396 16.517 2.295 24.045l-33.868 50.024c-19.949 29.449-23.362 66.484-9.14 99.1 14.222 32.597 43.691 55.277 78.829 60.681l62.255 9.576c9.254 1.403 16.081 9.368 16.081 18.716v113.778c0 9.083-6.447 16.915-15.398 18.622zM682.667 438.519c0-88.879-72.306-161.185-161.185-161.185s-161.185 72.306-161.185 161.185 72.306 161.185 161.185 161.185 161.185-72.306 161.185-161.185zM521.481 542.815c-57.515 0-104.296-46.801-104.296-104.296s46.782-104.296 104.296-104.296 104.296 46.801 104.296 104.296-46.782 104.296-104.296 104.296z" />
<glyph unicode="&#xe922;" glyph-name="globe-europe" d="M529.68 465.485h211.554c-2.173 76.832-18.254 151.385-47.075 220.477-53.189-15.444-108.339-23.944-164.479-25.446v-195.032zM713.614 729.274c51.74 17.847 101.271 42.268 147.162 73.669l11.539 8.835c-84.413 83.582-197.647 137.973-323.268 147.003l-9.153-7.439c74.464-61.653 133.343-137.443 173.721-222.068zM529.68 913.561v-217.703c51.086 1.449 101.271 9.065 149.724 22.672-35.819 73.51-86.427 139.811-149.724 195.032zM733.882 214.261c55.309-20.003 108.145-47.145 157.004-81.974l15.338-11.486c70.259 84.554 113.782 192.010 117.775 309.326h-247.425c-1.997-74.888-16.628-147.674-42.692-215.865zM163.224 802.943c45.891-31.401 95.44-55.804 147.162-73.669 40.378 84.607 99.256 160.397 173.738 222.068l-9.153 7.439c-125.904-9.047-239.385-63.668-323.869-147.55l12.122-8.288zM494.338 913.561c-63.314-55.221-113.905-121.539-149.724-195.014 48.453-13.606 98.638-21.24 149.724-22.672v217.685zM247.443 430.144h-247.443c4.011-117.316 47.517-224.754 117.775-309.326l15.020 11.221c49.036 34.935 101.978 62.166 157.375 82.204-26.117 68.244-40.731 141.030-42.728 215.901zM296.020 696.883c-53.666 18.802-105.052 44.265-152.746 76.885l-16.575 11.345c-75.436-86.074-122.529-197.47-126.699-319.628h247.443c2.138 80.578 18.696 158.824 48.577 231.398zM282.784 465.485h211.554v195.032c-56.175 1.502-111.343 10.002-164.497 25.41-28.821-69.075-44.901-143.61-47.057-220.442zM482.357-54.14c-78.087 65.293-138.556 145.942-178.669 235.745-52.871-18.978-103.391-44.848-150.060-78.105l-12.175-9.1c84.36-88.407 199.856-146.738 328.764-157.199l12.14 8.659zM494.338 252.765v177.379h-211.554c1.997-71.019 15.992-140.023 40.872-204.627 55.009 16.575 112.262 25.693 170.681 27.248zM870.035 103.748c-46.492 33.133-96.871 58.932-149.653 77.857-40.148-90.015-100.688-170.734-178.704-235.798l12.104-8.606c128.908 10.461 244.421 68.774 328.781 157.181l-12.529 9.365zM881.503 774.334c-48.064-32.903-99.716-58.508-153.541-77.398 29.899-72.591 46.456-150.855 48.612-231.451h247.443c-4.188 122.546-51.545 234.243-127.388 320.423l-15.126-11.574zM494.338-17.932v235.356c-53.701-1.502-106.307-9.825-156.951-24.739 36.101-79.677 89.202-151.526 156.951-210.617zM741.233 430.144h-211.554v-177.379c58.437-1.555 115.708-10.673 170.734-27.248 24.81 64.586 38.805 133.591 40.819 204.627zM686.684 192.685c-50.644 14.914-103.285 23.219-157.004 24.739v-235.427c67.696 58.896 120.85 130.816 157.004 210.688z" />
<glyph unicode="&#xe923;" glyph-name="hamburger" d="M0 919.040h1024v-81.92h-1024v81.92zM0 632.32h1024v-81.92h-1024v81.92zM0 345.6h1024v-81.92h-1024v81.92zM0 58.88h1024v-81.92h-1024v81.92z" />
<glyph unicode="&#xe924;" glyph-name="heart" d="M1022.306 640.139c-14.947 164.519-131.395 283.881-277.126 283.881-97.089 0-185.985-52.247-236.006-135.983-49.568 84.82-134.821 136.003-230.354 136.003-145.712 0-262.179-119.362-277.106-283.881-1.182-7.267-6.026-45.512 8.705-107.881 21.23-89.96 70.266-171.786 141.773-236.577l356.747-323.741 362.871 323.721c71.507 64.811 120.544 146.618 141.773 236.597 14.731 62.349 9.886 100.594 8.724 107.861zM975.239 541.298c-19.378-82.161-64.299-157.016-129.78-216.332l-336.285-300.030-330.515 299.951c-65.599 59.435-110.5 134.27-129.898 216.431-13.943 59.021-8.212 92.362-8.192 92.579l0.295 1.989c12.801 144.136 112.863 248.768 237.956 248.768 92.303 0 173.558-56.717 212.118-147.996l18.138-42.991 18.138 42.991c37.949 89.881 123.498 147.977 217.987 147.977 125.073 0 225.155-104.631 238.212-250.638 0.039-0.315 5.77-33.676-8.173-92.697zM315.075 804.343c-108.59 0-196.934-88.345-196.934-196.934 0-10.89 8.803-19.693 19.693-19.693s19.693 8.803 19.693 19.693c0 86.868 70.68 157.548 157.548 157.548 10.89 0 19.693 8.803 19.693 19.693s-8.823 19.693-19.693 19.693z" />
<glyph unicode="&#xe925;" glyph-name="heart-solid" d="M1022.306 640.139c-14.947 164.519-131.395 283.881-277.126 283.881-97.089 0-185.985-52.247-236.006-135.983-49.568 84.82-134.821 136.003-230.354 136.003-145.712 0-262.179-119.362-277.106-283.881-1.182-7.267-6.026-45.512 8.705-107.881 21.23-89.96 70.266-171.786 141.773-236.577l356.747-323.741 362.871 323.721c71.507 64.811 120.544 146.618 141.773 236.597 14.731 62.349 9.886 100.594 8.724 107.861zM315.075 764.956c-86.868 0-157.548-70.68-157.548-157.548 0-10.89-8.803-19.693-19.693-19.693s-19.693 8.803-19.693 19.693c0 108.59 88.345 196.934 196.934 196.934 10.89 0 19.693-8.803 19.693-19.693s-8.823-19.693-19.693-19.693z" />
<glyph unicode="&#xe926;" glyph-name="home" d="M1006.716 500.619l-166.99 155.053v194.537h-137.994v-66.392l-189.741 176.184-494.708-459.381c-6.969-6.486-7.383-17.404-0.897-24.39 6.468-6.969 17.387-7.365 24.39-0.897l74.499 69.187v-608.518h275.988v415.068c0 18.457 14.955 33.412 33.412 33.412h174.666c18.457 0 33.412-14.955 33.412-33.412v-415.068h275.988v608.518l74.499-69.187c3.312-3.088 7.538-4.606 11.747-4.606 4.64 0 9.246 1.846 12.626 5.503 6.486 6.986 6.072 17.905-0.897 24.39z" />
<glyph unicode="&#xe927;" glyph-name="idea" d="M512 808.296c-177.759 0-322.37-144.612-322.37-322.37 0-134.865 83.266-254.331 208.593-301.511v-172.563c0-10.487 8.476-18.963 18.963-18.963h18.963v-37.926c0-10.487 8.476-18.963 18.963-18.963h113.778c10.487 0 18.963 8.476 18.963 18.963v37.926h18.963c10.487 0 18.963 8.476 18.963 18.963v172.563c125.326 47.18 208.593 166.647 208.593 301.511 0 177.759-144.612 322.37-322.37 322.37zM568.889 30.815c-10.487 0-18.963-8.476-18.963-18.963v-37.926h-75.852v37.926c0 10.487-8.476 18.963-18.963 18.963h-18.963v94.815h151.704v-94.815h-18.963zM600.898 215.855c-7.794-2.56-13.047-9.842-13.047-18.015v-34.285h-151.704v34.285c0 8.192-5.253 15.455-13.047 18.015-116.945 38.457-195.546 147.001-195.546 270.071 0 156.843 127.602 284.444 284.444 284.444s284.444-127.602 284.444-284.444c0-123.070-78.601-231.614-195.546-270.071zM512 846.222c10.487 0 18.963 8.476 18.963 18.963v75.852c0 10.487-8.476 18.963-18.963 18.963s-18.963-8.476-18.963-18.963v-75.852c0-10.487 8.476-18.963 18.963-18.963zM967.111 504.889h-75.852c-10.487 0-18.963-8.476-18.963-18.963s8.476-18.963 18.963-18.963h75.852c10.487 0 18.963 8.476 18.963 18.963s-8.476 18.963-18.963 18.963zM132.741 504.889h-75.852c-10.487 0-18.963-8.476-18.963-18.963s8.476-18.963 18.963-18.963h75.852c10.487 0 18.963 8.476 18.963 18.963s-8.476 18.963-18.963 18.963zM820.414 821.153l-53.627-53.627c-7.415-7.415-7.415-19.399 0-26.814 3.698-3.698 8.552-5.556 13.407-5.556s9.709 1.858 13.407 5.556l53.627 53.627c7.415 7.415 7.415 19.399 0 26.814s-19.418 7.396-26.814 0zM230.4 231.14l-53.627-53.627c-7.415-7.415-7.415-19.399 0-26.814 3.698-3.698 8.552-5.556 13.407-5.556s9.709 1.858 13.407 5.556l53.627 53.627c7.415 7.415 7.415 19.399 0 26.814s-19.399 7.415-26.814 0zM793.6 231.14c-7.415 7.415-19.399 7.415-26.814 0s-7.415-19.399 0-26.814l53.627-53.627c3.698-3.698 8.552-5.556 13.407-5.556s9.709 1.858 13.407 5.556c7.415 7.415 7.415 19.399 0 26.814l-53.627 53.627zM230.4 740.712c3.698-3.698 8.552-5.556 13.407-5.556s9.709 1.858 13.407 5.556c7.415 7.415 7.415 19.399 0 26.814l-53.627 53.627c-7.415 7.415-19.399 7.415-26.814 0s-7.415-19.399 0-26.814l53.627-53.627zM512 713.481c-125.478 0-227.556-102.078-227.556-227.556 0-10.487 8.476-18.963 18.963-18.963s18.963 8.476 18.963 18.963c0 104.562 85.068 189.63 189.63 189.63 10.487 0 18.963 8.476 18.963 18.963s-8.476 18.963-18.963 18.963z" />
<glyph unicode="&#xe928;" glyph-name="idea-2" d="M721.52 381.48c34.852 45.957 53.273 100.812 53.273 158.636 0 70.897-27.806 137.357-78.296 187.14-50.481 49.771-117.389 76.649-188.294 75.625-68.714-0.973-133.451-28.545-182.288-77.638-48.835-49.091-76.072-113.974-76.697-182.695-0.535-58.913 17.994-114.754 53.583-161.488 57.775-75.868 89.594-168.8 89.594-261.678v-101.627c0-45.079 36.674-81.753 81.753-81.753h76.043c45.079 0 81.753 36.676 81.753 81.753v101.62c0.002 93.905 30.753 184.541 89.576 262.105zM329.607 401.471c-31.016 40.728-47.163 89.406-46.699 140.769 1.121 123.395 102.4 225.204 225.77 226.949 61.89 0.831 120.156-22.541 164.161-65.93 44.019-43.399 68.26-101.34 68.26-163.146 0-50.409-16.054-98.224-46.427-138.276-61.979-81.728-95.351-177.075-96.717-276.125h-171.915c-1.408 98.089-35.528 195.781-96.434 275.759zM426.088 29.172v13.639l172.165-19.724v-5.332c0-2.808-0.292-5.544-0.755-8.219l-171.41 19.636zM426.088 76.724v15.294h172.165v-35.018l-172.165 19.724zM474.148-30.307c-18.098 0-33.877 10.063-42.074 24.881l145.030-16.615c-7.684-5.213-16.948-8.264-26.912-8.264h-76.045zM345.412 514.774c-1.314 8.816-1.941 17.873-1.858 26.916 0.085 9.304-7.388 16.914-16.692 16.999-9.241 0.081-16.914-7.388-16.999-16.692-0.099-10.804 0.649-21.635 2.224-32.195 1.247-8.36 8.434-14.364 16.642-14.364 0.827 0 1.664 0.061 2.507 0.186 9.2 1.375 15.548 9.946 14.176 19.149zM444.552 258.882c1.743 0 3.518 0.274 5.265 0.847 8.839 2.907 13.648 12.428 10.741 21.265-18.67 56.777-46.496 109.675-82.705 157.221-5.984 7.859-11.287 16.231-15.759 24.886-4.272 8.266-14.436 11.501-22.702 7.228-8.264-4.272-11.501-14.436-7.228-22.702 5.368-10.382 11.721-20.416 18.886-29.825 33.931-44.556 60.007-94.125 77.503-147.331 2.332-7.091 8.92-11.588 16-11.588zM689.013 482.429c-8.545 3.682-18.457-0.263-22.136-8.807-5.337-12.395-12.244-24.216-20.528-35.137-5.622-7.412-4.169-17.981 3.244-23.603 3.044-2.309 6.62-3.423 10.166-3.423 5.092 0 10.124 2.298 13.437 6.669 9.926 13.089 18.21 27.276 24.625 42.166 3.682 8.545-0.261 18.457-8.807 22.136zM512.001 708.565c92.885 0 168.452-75.569 168.452-168.454 0-5.281-0.243-10.602-0.721-15.815-0.849-9.266 5.97-17.464 15.236-18.316 0.523-0.047 1.042-0.072 1.559-0.072 8.61 0 15.955 6.566 16.757 15.308 0.571 6.233 0.863 12.59 0.863 18.895 0 111.463-90.681 202.147-202.145 202.147-9.304 0-16.847-7.543-16.847-16.847s7.543-16.847 16.847-16.847zM512.001 831.967c9.304 0 16.847 7.543 16.847 16.847v94.34c0 9.304-7.543 16.847-16.847 16.847s-16.847-7.543-16.847-16.847v-94.34c0-9.304 7.543-16.847 16.847-16.847zM341.568 798.678c3.122-5.407 8.783-8.428 14.605-8.428 2.857 0 5.755 0.728 8.408 2.26 8.057 4.652 10.82 14.955 6.168 23.012l-47.148 81.672c-4.654 8.059-14.955 10.82-23.012 6.168s-10.82-14.955-6.168-23.012l47.148-81.672zM872.020 348.775l-81.672 47.148c-8.059 4.654-18.363 1.891-23.012-6.168-4.652-8.057-1.891-18.36 6.168-23.012l81.672-47.148c2.653-1.532 5.548-2.26 8.408-2.26 5.822 0 11.485 3.023 14.605 8.428 4.652 8.057 1.889 18.36-6.168 23.012zM151.98 725.573l81.672-47.148c2.653-1.532 5.548-2.26 8.408-2.26 5.822 0 11.485 3.023 14.605 8.428 4.652 8.057 1.891 18.36-6.168 23.012l-81.672 47.148c-8.057 4.654-18.36 1.891-23.012-6.168-4.652-8.057-1.891-18.358 6.168-23.012zM917.977 554.022h-94.34c-9.304 0-16.847-7.543-16.847-16.847s7.543-16.847 16.847-16.847h94.34c9.304 0 16.847 7.543 16.847 16.847s-7.54 16.847-16.847 16.847zM217.208 537.175c0 9.304-7.543 16.847-16.847 16.847h-94.34c-9.304 0-16.847-7.543-16.847-16.847s7.543-16.847 16.847-16.847h94.34c9.306 0 16.847 7.543 16.847 16.847zM781.94 676.166c2.857 0 5.755 0.728 8.408 2.26l81.672 47.148c8.057 4.652 10.82 14.955 6.168 23.012s-14.957 10.82-23.012 6.168l-81.672-47.148c-8.057-4.652-10.82-14.955-6.168-23.012 3.12-5.404 8.785-8.428 14.605-8.428zM233.652 395.923l-81.672-47.148c-8.057-4.652-10.82-14.955-6.168-23.012 3.12-5.404 8.783-8.428 14.605-8.428 2.857 0 5.755 0.728 8.408 2.26l81.672 47.148c8.057 4.652 10.82 14.955 6.168 23.012-4.65 8.059-14.96 10.82-23.012 6.168zM659.419 792.51c2.653-1.532 5.548-2.26 8.408-2.26 5.822 0 11.485 3.023 14.605 8.428l47.148 81.672c4.652 8.057 1.889 18.36-6.168 23.012-8.055 4.652-18.36 1.891-23.012-6.168l-47.148-81.672c-4.652-8.057-1.889-18.36 6.168-23.012z" />
<glyph unicode="&#xe929;" glyph-name="instagram" d="M512 861c134.6 0 150.4-0.6 203.6-3 49.2-2.2 75.8-10.4 93.6-17.4 23.6-9.2 40.4-20 58-37.6s28.6-34.4 37.6-58c6.8-17.8 15.2-44.4 17.4-93.6 2.4-53.2 3-69 3-203.6s-0.6-150.4-3-203.6c-2.2-49.2-10.4-75.8-17.4-93.6-9.2-23.6-20-40.4-37.6-58s-34.4-28.6-58-37.6c-17.8-6.8-44.4-15.2-93.6-17.4-53.2-2.4-69-3-203.6-3s-150.4 0.6-203.6 3c-49.2 2.2-75.8 10.4-93.6 17.4-23.6 9.2-40.4 20-58 37.6s-28.6 34.4-37.6 58c-6.8 17.8-15.2 44.4-17.4 93.6-2.4 53.2-3 69-3 203.6s0.6 150.4 3 203.6c2.2 49.2 10.4 75.8 17.4 93.6 9.2 23.6 20 40.4 37.6 58s34.4 28.6 58 37.6c17.8 6.8 44.4 15.2 93.6 17.4 53.2 2.6 69 3 203.6 3zM512 951.8c-136.8 0-154-0.6-207.8-3-53.6-2.4-90.2-11-122.2-23.4-33.2-12.8-61.2-30.2-89.2-58.2s-45.2-56.2-58.2-89.2c-12.4-32-21-68.6-23.4-122.4-2.4-53.6-3-70.8-3-207.6s0.6-154 3-207.8c2.4-53.6 11-90.2 23.4-122.4 12.8-33.2 30.2-61.2 58.2-89.2s56.2-45.2 89.2-58.2c32-12.4 68.6-21 122.4-23.4s70.8-3 207.8-3 154 0.6 207.8 3c53.6 2.4 90.2 11 122.4 23.4 33.2 12.8 61.2 30.2 89.2 58.2s45.2 56.2 58.2 89.2c12.4 32 21 68.6 23.4 122.4s3 70.8 3 207.8-0.6 154-3 207.8c-2.4 53.6-11 90.2-23.4 122.4-12.8 33.2-30.2 61.2-58.2 89.2s-56.2 45.2-89.2 58.2c-32 12.4-68.6 21-122.4 23.4-54 2.2-71.2 2.8-208 2.8zM512 706.8c-142.8 0-258.8-115.8-258.8-258.8s116-258.8 258.8-258.8 258.8 116 258.8 258.8-116 258.8-258.8 258.8zM512 280c-92.8 0-168 75.2-168 168s75.2 168 168 168 168-75.2 168-168-75.2-168-168-168zM841.4 717c0-33.358-27.042-60.4-60.4-60.4s-60.4 27.042-60.4 60.4c0 33.358 27.042 60.4 60.4 60.4s60.4-27.042 60.4-60.4z" />
<glyph unicode="&#xe92a;" glyph-name="linkedin-in" d="M264.56 64h-185.76v598.2h185.76zM171.58 743.8c-59.4 0-107.58 49.2-107.58 108.6 0 59.415 48.165 107.58 107.58 107.58s107.58-48.165 107.58-107.58v0c0-59.4-48.2-108.6-107.58-108.6zM959.8 64h-185.36v291.2c0 69.4-1.4 158.4-96.58 158.4-96.58 0-111.38-75.4-111.38-153.4v-296.2h-185.56v598.2h178.16v-81.6h2.6c24.8 47 85.38 96.6 175.76 96.6 188 0 222.56-123.8 222.56-284.6v-328.6z" />
<glyph unicode="&#xe92b;" glyph-name="lock" d="M815.407 578.598v106.439c0 151.609-136.116 274.963-303.407 274.963s-303.407-123.354-303.407-274.963v-106.439c-64.493-11.112-113.778-67.319-113.778-134.959v-370.574c0-75.567 61.497-137.064 137.083-137.064h560.204c75.586 0 137.083 61.497 137.083 137.083v370.574c0 67.622-49.285 123.828-113.778 134.94zM246.519 685.037c0 130.712 119.087 237.037 265.481 237.037s265.481-106.325 265.481-237.037v-104.296h-530.963v104.296zM587.852 239.407c0-41.832-34.020-75.852-75.852-75.852s-75.852 34.020-75.852 75.852v113.778c0 41.832 34.020 75.852 75.852 75.852s75.852-34.020 75.852-75.852v-113.778z" />
<glyph unicode="&#xe92c;" glyph-name="mail" d="M1023.796 568.53c-0.106 1.176-0.34 2.338-0.7 3.464-0.234 1.006-0.56 1.988-0.972 2.936-0.478 0.926-1.050 1.802-1.706 2.612-0.658 0.962-1.42 1.848-2.27 2.646-0.274 0.238-0.392 0.564-0.682 0.802l-164.138 127.476v132.119c0 28.277-22.925 51.203-51.203 51.203h-184.961l-74.058 57.501c-18.295 14.269-43.95 14.269-62.245 0l-74.074-57.501h-184.961c-28.277 0-51.203-22.923-51.203-51.203v-132.121l-164.086-127.476c-0.29-0.24-0.41-0.564-0.682-0.802-0.85-0.796-1.612-1.684-2.27-2.646-0.656-0.81-1.228-1.684-1.706-2.612-0.414-0.946-0.738-1.93-0.972-2.936-0.356-1.11-0.59-2.254-0.7-3.414 0-0.358-0.204-0.666-0.204-1.024v-580.343c0.024-10.857 3.536-21.417 10.019-30.124 0.102-0.154 0.12-0.342 0.238-0.478 0.12-0.136 0.376-0.29 0.546-0.478 9.588-12.617 24.501-20.055 40.348-20.123h921.647c15.909 0.048 30.884 7.522 40.484 20.207 0.136 0.17 0.342 0.222 0.46 0.392 0.12 0.17 0.136 0.324 0.24 0.478 6.482 8.708 9.995 19.269 10.019 30.124v580.297c-0.002 0.358-0.188 0.666-0.206 1.024zM501.733 922.358c5.96 4.736 14.401 4.736 20.361 0l39.374-30.568h-98.991l39.256 30.568zM55.453-29.858l446.283 346.66c5.964 4.728 14.399 4.728 20.361 0l446.401-346.66h-913.044zM989.866-3.249l-446.761 346.984c-18.299 14.257-43.946 14.257-62.245 0l-446.777-346.984v544.762l279.686-217.185c7.452-5.778 18.177-4.422 23.955 3.030s4.422 18.177-3.030 23.955l-284.14 220.631 120.070 93.309v-131.881c0-9.426 7.642-17.067 17.067-17.067s17.067 7.642 17.067 17.067v307.216c0 9.426 7.64 17.067 17.067 17.067h580.295c9.426 0 17.067-7.64 17.067-17.067v-307.216c0-9.426 7.64-17.067 17.067-17.067s17.067 7.642 17.067 17.067v131.881l120.070-93.309-284.634-221.025c-4.896-3.71-7.422-9.766-6.61-15.857s4.834-11.275 10.533-13.573c5.698-2.298 12.193-1.358 17.003 2.464l280.18 217.559v-544.762zM716.784 550.439v68.269c0 113.114-91.697 204.81-204.81 204.81s-204.81-91.697-204.81-204.81 91.697-204.81 204.81-204.81c9.426 0 17.067 7.64 17.067 17.067s-7.64 17.067-17.067 17.067c-94.261 0-170.675 76.414-170.675 170.675s76.414 170.675 170.675 170.675 170.675-76.414 170.675-170.675v-68.269c0-18.853-15.283-34.136-34.136-34.136s-34.136 15.283-34.136 34.136v68.269c0 9.426-7.64 17.067-17.067 17.067s-17.067-7.64-17.067-17.067c0-37.704-30.566-68.269-68.269-68.269s-68.269 30.566-68.269 68.269 30.566 68.269 68.269 68.269c9.426 0 17.067 7.64 17.067 17.067s-7.64 17.067-17.067 17.067c-45.832 0.102-86.152-30.262-98.713-74.34s5.694-91.135 44.696-115.208c39.002-24.073 89.249-19.301 123.020 11.687 3.716-36.094 35.088-62.931 71.322-61.013 36.236 1.92 64.599 31.918 64.485 68.203z" />
<glyph unicode="&#xe92d;" glyph-name="minus" d="M1000.727 494.545v-93.091h-977.455v93.091z" />
<glyph unicode="&#xe92e;" glyph-name="mobile-phone" d="M966.178 882.022c-6.673 6.673-17.459 6.673-24.132 0s-6.673-17.459 0-24.132c63.761-63.761 63.761-167.509 0-231.287-6.673-6.673-6.673-17.459 0-24.132 3.328-3.328 7.697-5.001 12.066-5.001s8.738 1.673 12.066 5.001c77.073 77.056 77.073 202.479 0 279.552zM894.31 843.179c-6.673 6.673-17.459 6.673-24.132 0s-6.673-17.459 0-24.132c21.111-21.111 32.734-49.237 32.734-79.172s-11.622-58.044-32.734-79.155c-6.673-6.673-6.673-17.459 0-24.132 3.328-3.328 7.697-5.001 12.066-5.001s8.738 1.673 12.066 5.001c27.563 27.546 42.735 64.239 42.735 103.287s-15.155 75.759-42.735 103.305zM81.954 857.89c6.673 6.673 6.673 17.459 0 24.132s-17.459 6.673-24.132 0c-77.073-77.073-77.073-202.479 0-279.552 3.328-3.328 7.697-5.001 12.066-5.001s8.738 1.673 12.066 5.001c6.673 6.673 6.673 17.459 0 24.132-63.778 63.761-63.778 167.509 0 231.287zM153.822 847.889c-6.673 6.673-17.459 6.673-24.132 0-27.563-27.546-42.735-64.239-42.735-103.287s15.172-75.742 42.735-103.305c3.328-3.328 7.697-5.001 12.066-5.001s8.738 1.673 12.066 5.001c6.673 6.673 6.673 17.459 0 24.132-21.111 21.111-32.734 49.237-32.734 79.172s11.605 58.044 32.734 79.155c6.656 6.656 6.656 17.459 0 24.132zM546.133 55.467c0-18.851-15.282-34.133-34.133-34.133s-34.133 15.282-34.133 34.133c0 18.851 15.282 34.133 34.133 34.133s34.133-15.282 34.133-34.133zM726.955 960h-429.909c-41.455 0-75.179-33.741-75.179-75.179v-873.626c0-41.455 33.724-75.196 75.179-75.196h429.892c41.472 0 75.196 33.741 75.196 75.179v873.643c0 41.438-33.724 75.179-75.179 75.179zM563.2 908.8h17.067c9.421 0 17.067-7.629 17.067-17.067s-7.646-17.067-17.067-17.067h-17.067c-9.421 0-17.067 7.629-17.067 17.067s7.646 17.067 17.067 17.067zM443.733 908.8h68.267c9.421 0 17.067-7.629 17.067-17.067s-7.646-17.067-17.067-17.067h-68.267c-9.421 0-17.067 7.629-17.067 17.067s7.646 17.067 17.067 17.067zM512-12.8c-37.649 0-68.267 30.618-68.267 68.267s30.618 68.267 68.267 68.267 68.267-30.618 68.267-68.267-30.618-68.267-68.267-68.267zM768 174.933h-512v648.533h512v-648.533z" />
<glyph unicode="&#xe92f;" glyph-name="more-alt" d="M307.2 516.267c-37.649 0-68.267-30.618-68.267-68.267s30.618-68.267 68.267-68.267 68.267 30.618 68.267 68.267-30.618 68.267-68.267 68.267zM512 516.267c-37.649 0-68.267-30.618-68.267-68.267s30.618-68.267 68.267-68.267 68.267 30.618 68.267 68.267-30.618 68.267-68.267 68.267zM785.067 448c0 37.649-30.618 68.267-68.267 68.267s-68.267-30.618-68.267-68.267 30.618-68.267 68.267-68.267 68.267 30.618 68.267 68.267zM41.199 448l226.867 226.867c6.673 6.673 6.673 17.459 0 24.132s-17.459 6.673-24.132 0l-238.933-238.933c-6.673-6.673-6.673-17.459 0-24.132l238.933-238.933c3.328-3.328 7.697-5.001 12.066-5.001s8.738 1.673 12.066 5.001c6.673 6.673 6.673 17.459 0 24.132l-226.867 226.867zM1018.999 460.066l-238.933 238.933c-6.673 6.673-17.459 6.673-24.132 0s-6.673-17.459 0-24.132l226.867-226.867-226.867-226.867c-6.673-6.673-6.673-17.459 0-24.132 3.328-3.328 7.697-5.001 12.066-5.001s8.738 1.673 12.066 5.001l238.933 238.933c6.673 6.673 6.673 17.459 0 24.132z" />
<glyph unicode="&#xe930;" glyph-name="notebook" d="M973.056 960h-68.762c-28.109 0-50.961-22.852-50.961-50.944v-806.929l68.267-119.467v-29.594c0-9.438 7.629-17.067 17.067-17.067s17.067 7.629 17.067 17.067v29.594l68.267 119.467v806.929c0 28.092-22.852 50.944-50.944 50.944zM887.467 806.4h102.4v-34.133h-102.4v34.133zM938.667 21.606l-38.861 67.994h77.722l-38.861-67.994zM989.867 123.733h-102.4v614.4h102.4v-614.4zM887.467 840.533v68.523c0 9.267 7.543 16.811 16.811 16.811h68.762c9.284 0 16.828-7.543 16.828-16.811v-68.523h-102.4zM0 960v-1024h785.067v1024h-785.067zM34.133-29.867v955.733h102.4v-955.733h-102.4zM750.933 925.867v-955.733h-580.267v955.733h580.267zM665.6 550.4v238.933h-409.6v-238.933h409.6zM290.133 755.2h341.333v-170.667h-341.333v170.667zM341.333 721.067h238.933v-34.133h-238.933v34.133zM341.333 652.8h238.933v-34.133h-238.933v34.133z" />
<glyph unicode="&#xe931;" glyph-name="package" d="M1024 744.385h-274.127c14.641 20.929 22.618 45.793 22.618 71.985 0 33.684-13.043 65.267-36.702 88.926-49.026 49.026-128.808 49.026-177.835 0l-50.823-50.823-50.805 50.823c-49.026 49.026-128.808 49.026-177.835 0-23.66-23.66-36.702-55.242-36.702-88.926 0-26.193 7.976-51.056 22.618-71.985h-264.408v-251.509h89.825v-538.947h862.316v538.947h71.86v251.509zM583.357 879.894c35.032 35.014 92.016 35.014 127.030 0 16.869-16.887 26.175-39.433 26.175-63.524 0-24.073-9.306-46.637-26.175-63.506l-8.479-8.479h-254.060l135.509 135.509zM303.894 752.865c-16.869 16.869-26.175 39.433-26.175 63.506 0 24.091 9.306 46.637 26.175 63.524 35.032 35.014 92.016 35.014 127.030 0l50.805-50.823-63.506-63.506c-3.719-3.719-7.132-7.923-10.438-12.378-0.97-1.311-1.922-2.731-2.856-4.114-1.078-1.581-2.21-3-3.234-4.671h-89.322l-8.479 8.461zM35.93 528.806v179.649h467.088v-179.649h-467.088zM503.018 492.876v-215.579h-377.263v215.579h377.263zM125.754 241.368h377.263v-251.509h-377.263v251.509zM538.947-10.141v251.509h377.263v-251.509h-377.263zM916.211 277.297h-377.263v215.579h377.263v-215.579zM988.070 528.806h-449.123v179.649h449.123v-179.649z" />
<glyph unicode="&#xe932;" glyph-name="pause" d="M601.6 960h153.6v-1024h-153.6v1024zM268.8 960h153.6v-1024h-153.6v1024z" />
<glyph unicode="&#xe933;" glyph-name="pencil-ruler" d="M1017.432 682.166l-271.379 271.364c-8.51 8.508-22.292 8.508-30.802 0l-708.871-708.871c-8.508-8.508-8.508-22.292 0-30.802l271.354-271.379c8.14-8.66 23.766-8.387 30.804 0l708.893 708.881c6.487 4.604 10.771 20.035 0 30.806zM293.138-11.315l-240.551 240.574 47.954 47.954 62.133-62.133 30.804 30.804-62.133 62.131 47.964 47.964 101.917-101.915 30.802 30.802-101.917 101.917 47.964 47.962 62.123-62.131 30.804 30.804-62.123 62.131 47.954 47.956 101.917-101.917 30.804 30.804-101.917 101.917 47.97 47.97 62.137-62.137 30.802 30.804-62.137 62.137 47.956 47.956 101.932-101.924 30.804 30.802-101.932 101.924 47.964 47.964 62.137-62.129 30.804 30.804-62.137 62.129 47.962 47.962 101.924-101.922 30.804 30.802-101.924 101.924 47.954 47.954 240.574-240.562-678.093-678.083z" />
<glyph unicode="&#xe934;" glyph-name="phone" d="M997.13 170.039l-207.261 138.219c-26.302 17.399-61.559 11.674-81.004-13.156l-60.373-77.624c-7.759-10.23-21.863-13.198-33.087-6.963l-11.484 6.331c-38.070 20.751-85.439 46.585-180.879 142.059s-121.326 142.879-142.077 180.879l-6.297 11.484c-6.321 11.222-3.409 25.386 6.825 33.207l77.572 60.355c24.82 19.447 30.553 54.694 13.174 81.004l-138.219 207.261c-17.811 26.792-53.546 34.835-81.12 18.259l-86.669-52.062c-27.232-16.010-47.211-41.938-55.748-72.351-31.209-113.715-7.731-309.97 281.37-599.105 229.974-229.956 401.178-291.797 518.853-291.797 27.082-0.116 54.058 3.407 80.202 10.476 30.419 8.527 56.352 28.508 72.351 55.748l52.114 86.617c16.6 27.58 8.561 63.337-18.243 81.158zM985.97 106.391l-51.994-86.669c-11.488-19.661-30.14-34.117-52.046-40.34-104.978-28.822-288.383-4.949-565.932 272.6s-301.419 460.938-272.598 565.932c6.231 21.933 20.705 40.608 40.39 52.114l86.669 51.994c11.964 7.199 27.474 3.709 35.203-7.917l138.102-207.243c7.547-11.412 5.067-26.708-5.699-35.153l-77.59-60.355c-23.612-18.055-30.355-50.724-15.818-76.653l6.161-11.194c21.809-39.998 48.923-89.757 147.912-188.73 98.989-98.971 148.732-126.087 188.712-147.894l11.21-6.177c25.926-14.536 58.597-7.795 76.653 15.818l60.355 77.59c8.447 10.76 23.736 13.238 35.153 5.699l207.243-138.219c11.634-7.723 15.124-23.241 7.915-35.203zM580.236 789.245c160.138-0.178 289.911-129.953 290.091-290.091 0-9.425 7.639-17.063 17.063-17.063s17.063 7.639 17.063 17.063c-0.198 178.979-145.238 324.022-324.218 324.218-9.425 0-17.063-7.639-17.063-17.063s7.639-17.063 17.063-17.063zM580.236 686.861c103.617-0.122 187.584-84.090 187.706-187.706 0-9.425 7.641-17.063 17.063-17.063 9.425 0 17.063 7.639 17.063 17.063-0.142 122.458-99.377 221.693-221.833 221.833-9.425 0-17.063-7.639-17.063-17.063s7.639-17.063 17.063-17.063zM580.236 584.476c47.097-0.056 85.263-38.222 85.321-85.321 0-9.425 7.641-17.063 17.063-17.063s17.063 7.639 17.063 17.063c-0.076 65.938-53.51 119.374-119.448 119.448-9.425 0-17.063-7.639-17.063-17.063s7.639-17.063 17.063-17.063z" />
<glyph unicode="&#xe935;" glyph-name="phone-alt" d="M1004.088 145.756l-214.437 142.952c-19.476 12.958-45.649 8.71-60.027-9.746l-62.445-80.277c-13.414-17.42-37.544-22.426-56.779-11.776-42.372 23.57-92.477 45.761-203.032 156.458s-132.888 160.66-156.458 203.032c-10.65 19.236-5.644 43.365 11.776 56.777l80.277 62.445c18.454 14.376 22.704 40.55 9.746 60.027l-142.952 214.439c-13.234 19.852-39.726 25.812-60.185 13.542l-89.671-53.795c-24.234-14.278-42.048-37.334-49.751-64.387-24.522-89.405-29.466-286.629 286.611-602.705s513.282-311.116 602.687-286.593c27.054 7.702 50.109 25.516 64.387 49.751l53.795 89.669c12.272 20.462 6.312 46.951-13.54 60.185zM582.611 801.108c165.682-0.184 299.95-134.45 300.134-300.134 0-9.75 7.904-17.656 17.656-17.656 9.75 0 17.656 7.904 17.656 17.656-0.204 185.176-150.268 335.24-335.444 335.444-9.75 0-17.656-7.904-17.656-17.656-0.002-9.748 7.902-17.654 17.654-17.654zM582.611 695.179c107.205-0.126 194.078-87.001 194.204-194.204 0-9.75 7.904-17.656 17.656-17.656 9.75 0 17.656 7.904 17.656 17.656-0.146 126.697-102.817 229.369-229.515 229.515-9.75 0-17.656-7.904-17.656-17.656s7.904-17.656 17.656-17.656zM582.611 589.248c48.729-0.058 88.217-39.546 88.275-88.275 0-9.75 7.904-17.656 17.656-17.656 9.75 0 17.656 7.904 17.656 17.656-0.078 68.221-55.363 123.507-123.585 123.585-9.75 0-17.656-7.904-17.656-17.656-0.002-9.75 7.902-17.654 17.654-17.654z" />
<glyph unicode="&#xe936;" glyph-name="pictue" d="M1006.345 854.069h-988.69c-9.746 0-17.655-7.892-17.655-17.655v-776.828c0-9.763 7.91-17.655 17.655-17.655h988.69c9.746 0 17.655 7.892 17.655 17.655v776.828c0 9.763-7.91 17.655-17.655 17.655zM988.69 77.241h-953.379v741.517h953.379v-741.517zM282.483 463.219c54.219 0 98.322 44.103 98.322 98.304 0 54.237-44.103 98.339-98.322 98.339s-98.322-44.103-98.322-98.322c0-54.219 44.103-98.322 98.322-98.322zM282.483 624.552c34.745 0 63.011-28.284 63.011-63.011s-28.266-63.011-63.011-63.011-63.011 28.266-63.011 62.994 28.266 63.029 63.011 63.029zM123.586 147.862c4.131 0 8.298 1.448 11.652 4.396l288.009 253.564 181.884-181.866c6.903-6.903 18.061-6.903 24.964 0s6.903 18.061 0 24.964l-84.868 84.868 162.092 177.505 198.815-182.254c7.186-6.585 18.361-6.091 24.947 1.095s6.109 18.361-1.095 24.947l-211.862 194.207c-3.46 3.16-8.068 4.732-12.712 4.626-4.679-0.212-9.092-2.278-12.253-5.738l-172.915-189.387-83.738 83.738c-6.603 6.585-17.161 6.921-24.152 0.777l-300.438-264.527c-7.327-6.444-8.033-17.602-1.589-24.929 3.496-3.972 8.369-5.985 13.259-5.985z" />
<glyph unicode="&#xe937;" glyph-name="picture-alt" d="M1006.345 854.069h-988.69c-9.746 0-17.655-7.892-17.655-17.655v-776.828c0-9.763 7.91-17.655 17.655-17.655h988.69c9.746 0 17.655 7.892 17.655 17.655v776.828c0 9.763-7.91 17.655-17.655 17.655zM282.483 659.862c54.219 0 98.322-44.103 98.322-98.322 0-54.201-44.103-98.304-98.322-98.304s-98.322 44.103-98.322 98.304c0 54.219 44.103 98.322 98.322 98.322zM931.081 330.134c-6.585-7.168-17.761-7.68-24.947-1.095l-198.815 182.272-162.092-177.505 84.868-84.868c6.903-6.903 6.903-18.061 0-24.964s-18.061-6.903-24.964 0l-181.866 181.848-288.009-253.564c-3.354-2.948-7.521-4.396-11.67-4.396-4.89 0-9.763 2.013-13.259 5.985-6.444 7.327-5.738 18.485 1.589 24.929l300.438 264.51c6.991 6.144 17.549 5.809 24.152-0.777l83.738-83.738 172.915 189.387c3.16 3.46 7.574 5.526 12.253 5.738 4.661 0.106 9.251-1.465 12.712-4.626l211.862-194.207c7.203-6.568 7.68-17.743 1.095-24.929z" />
<glyph unicode="&#xe938;" glyph-name="pin" d="M128 576c0 212.077 171.923 384 384 384s384-171.923 384-384v0c0-256-384-640-384-640s-384 384-384 640zM352 576c0-88.366 71.634-160 160-160s160 71.634 160 160v0c0 88.366-71.634 160-160 160s-160-71.634-160-160v0z" />
<glyph unicode="&#xe939;" glyph-name="pin-2" d="M772.339 699.661c0 143.551-116.788 260.339-260.339 260.339s-260.339-116.788-260.339-260.339c0-137.702 107.52-250.463 242.983-259.454v-486.851c0-9.598 7.775-17.356 17.356-17.356s17.356 7.758 17.356 17.356v486.851c135.463 8.99 242.983 121.752 242.983 259.454zM512 474.034c-124.407 0-225.627 101.22-225.627 225.627s101.22 225.627 225.627 225.627 225.627-101.22 225.627-225.627-101.22-225.627-225.627-225.627zM425.22 838.508c-38.287 0-69.424-31.137-69.424-69.424s31.137-69.424 69.424-69.424 69.424 31.137 69.424 69.424-31.137 69.424-69.424 69.424zM425.22 734.373c-19.144 0-34.712 15.568-34.712 34.712s15.568 34.712 34.712 34.712 34.712-15.568 34.712-34.712-15.568-34.712-34.712-34.712z" />
<glyph unicode="&#xe93a;" glyph-name="pinterest" d="M955.377 705.002c-45.786 78.44-107.892 140.546-186.335 186.33-78.44 45.782-164.105 68.668-257.004 68.668-92.892 0-178.561-22.886-257.001-68.668-78.452-45.777-140.558-107.883-186.339-186.33-45.793-78.452-68.679-164.114-68.679-257.008 0-103.561 28.219-197.573 84.665-282.001 56.444-84.464 130.445-146.905 222.003-187.348-1.779 47.554 1.111 86.886 8.661 117.996l66.006 278.687c-11.115 21.784-16.67 48.873-16.67 81.333 0 37.77 9.548 69.326 28.663 94.666 19.115 25.336 42.445 38.001 70.003 38.001 22.216 0 39.325-7.332 51.33-21.996 12.007-14.671 17.992-33.114 17.992-55.341 0-13.768-2.566-30.552-7.68-50.33-5.109-19.78-11.771-42.669-19.993-68.672-8.222-25.994-14.116-46.786-17.667-62.328-6.218-27.106-1.111-50.328 15.334-69.674 16.444-19.33 38.23-29.009 65.343-29.009 47.554 0 86.55 26.442 117.004 79.327 30.445 52.901 45.66 117.125 45.66 192.677 0 58.232-18.779 105.569-56.343 142.003-37.56 36.448-89.891 54.681-157.008 54.681-75.098 0-135.883-24.114-182.328-72.336-46.447-48.229-69.669-105.901-69.669-173.008 0-40.005 11.334-73.567 33.999-100.67 7.554-8.887 10.001-18.442 7.332-28.672-0.89-2.669-2.664-9.333-5.333-19.993-2.657-10.66-4.444-17.564-5.326-20.668-3.552-14.223-12.002-18.667-25.336-13.329-34.218 14.209-60.224 38.884-77.996 73.996-17.779 35.113-26.671 75.787-26.671 121.999 0 29.779 4.78 59.556 14.337 89.331 9.548 29.786 24.444 58.559 44.661 86.34 20.229 27.787 44.451 52.345 72.675 73.669 28.212 21.331 62.55 38.44 102.996 51.33s83.997 19.334 130.669 19.334c63.122 0 119.778-13.999 169.994-41.999 50.232-28.002 88.558-64.219 115.007-108.668 26.449-44.451 39.666-92.009 39.666-142.676 0-66.664-11.554-126.662-34.657-180.002-23.108-53.331-55.778-95.22-98.010-125.658-42.225-30.454-90.22-45.676-144.016-45.676-27.103 0-52.437 6.337-76.002 18.996-23.549 12.672-39.776 27.664-48.661 45.004-20.002-78.657-32.005-125.557-36.007-140.665-8.444-31.542-25.775-67.995-52.002-109.326 47.559-14.223 96-21.319 145.335-21.319 92.892 0 178.564 22.886 257.004 68.675 78.447 45.772 140.553 107.878 186.325 186.318 45.782 78.456 68.668 164.126 68.668 257.011 0.023 92.885-22.83 178.559-68.595 256.999z" />
<glyph unicode="&#xe93b;" glyph-name="placeholder" d="M517.926 514.963c64.603 0 117.185 52.583 117.185 117.185s-52.583 117.185-117.185 117.185-117.185-52.583-117.185-117.185 52.566-117.185 117.185-117.185zM517.926 715.852c46.154 0 83.704-37.55 83.704-83.704s-37.55-83.704-83.704-83.704-83.704 37.55-83.704 83.704 37.55 83.704 83.704 83.704zM840.655 330.815h-119.881l51.009 73.659c96.343 128.419 82.398 339.503-29.815 451.7-60.618 60.635-141.242 94.033-227.005 94.033-85.746 0-166.37-33.398-227.005-94.033-112.213-112.197-126.159-323.298-30.2-451.197l51.361-74.178h-125.773l-183.345-385.021h1024l-183.345 385.038zM284.928 424.563c-87.035 116.064-74.563 306.691 26.718 407.956 54.307 54.307 126.527 84.223 203.334 84.223s149.010-29.916 203.334-84.223c101.282-101.265 113.754-291.909 26.333-408.458l-229.683-331.685-230.035 332.187zM204.505 297.333h127.799l182.659-263.784 182.642 263.784h121.89l151.471-318.075h-917.93l151.471 318.075z" />
<glyph unicode="&#xe93c;" glyph-name="play" d="M879.393 468.078l-707.064 487.631c-7.485 5.145-17.189 5.681-25.186 1.512-8.022-4.218-13.044-12.508-13.044-21.578v-975.261c0-9.070 5.023-17.384 13.044-21.602 3.56-1.853 7.461-2.779 11.337-2.779 4.852 0 9.679 1.463 13.849 4.316l707.064 487.631c6.607 4.559 10.533 12.044 10.533 20.066s-3.95 15.507-10.533 20.066z" />
<glyph unicode="&#xe93d;" glyph-name="plus" d="M558.545 401.455h442.182v93.091h-442.182v442.182h-93.091v-442.182h-442.182v-93.091h442.182v-442.182h93.091v442.182z" />
<glyph unicode="&#xe93e;" glyph-name="quickview" d="M1011.488 478.17l-178.172 178.172c-177.148 177.19-465.484 177.19-642.632 0l-178.172-178.172c-16.682-16.682-16.682-43.647 0-60.329l178.172-178.172c88.574-88.574 204.924-132.903 321.315-132.903s232.741 44.329 321.315 132.903l178.172 178.172c16.684 16.682 16.684 43.647 0.002 60.329zM511.999 234.678c-117.629 0-213.329 95.7-213.329 213.329s95.7 213.329 213.329 213.329 213.329-95.7 213.329-213.329-95.7-213.329-213.329-213.329zM511.999 576.002c-70.568 0-127.997-57.429-127.997-127.997s57.429-127.997 127.997-127.997 127.997 57.429 127.997 127.997-57.427 127.997-127.997 127.997z" />
<glyph unicode="&#xe93f;" glyph-name="quote" d="M254.951 442.73h152.951v-407.902h-407.902v308.674c0 337.171 135.967 517.694 407.902 541.571v-152.976c-101.975-28.472-152.951-110.242-152.951-245.26v-44.107zM866.804 442.73h152.951v-407.902h-407.902v308.674c0 337.171 135.967 517.694 407.902 541.571v-152.976c-101.975-28.472-152.951-110.242-152.951-245.26v-44.107z" />
<glyph unicode="&#xe940;" glyph-name="remove" d="M911.186 855.864h-243.747c-1.909 21.695-8.591 58.281-31.466 81.764-14.475 14.839-32.837 22.372-54.567 22.372h-173.542c-21.73 0-40.092-7.532-54.567-22.372-22.875-23.483-29.557-60.069-31.466-81.764h-209.017c-9.58 0-17.356-7.758-17.356-17.356s7.775-17.356 17.356-17.356h35.423l33.237-798.737c0.642-29.887 19.248-86.415 85.183-86.415h490.687c65.935 0 84.541 56.528 85.166 86.051l33.254 799.102h35.423c9.58 0 17.356 7.758 17.356 17.356s-7.775 17.356-17.356 17.356zM355.797 92.203c0-9.598-7.775-17.356-17.356-17.356s-17.356 7.758-17.356 17.356v572.746c0 9.598 7.775 17.356 17.356 17.356s17.356-7.758 17.356-17.356v-572.746zM529.356 92.203c0-9.598-7.775-17.356-17.356-17.356s-17.356 7.758-17.356 17.356v572.746c0 9.598 7.775 17.356 17.356 17.356s17.356-7.758 17.356-17.356v-572.746zM702.915 92.203c0-9.598-7.775-17.356-17.356-17.356s-17.356 7.758-17.356 17.356v572.746c0 9.598 7.775 17.356 17.356 17.356s17.356-7.758 17.356-17.356v-572.746zM378.22 913.469c7.775 7.949 17.477 11.819 29.644 11.819h173.542c12.167 0 21.868-3.87 29.644-11.819 13.972-14.284 19.577-39.415 21.521-57.604h-275.855c1.944 18.189 7.55 43.32 21.504 57.604z" />
<glyph unicode="&#xe941;" glyph-name="route" d="M358.758 465.459c-38.758 43.776-90.436 67.874-145.545 67.874s-106.786-24.098-145.527-67.874c-78.711-88.934-78.711-233.609 0-322.543l145.527-164.403 145.527 164.403c78.729 88.934 78.729 233.609 0.017 322.543zM333.193 165.547l-119.962-135.526-119.979 135.526c-67.686 76.442-67.686 200.841 0 277.282 32.171 36.352 74.786 56.371 119.962 56.371s87.808-20.019 119.962-56.371c67.686-76.442 67.686-200.823 0.017-277.282zM831.949 541.747l110.319 124.348c59.358 66.901 59.358 175.718 0 242.62-29.355 33.075-68.54 51.285-110.336 51.285-41.779 0-80.964-18.21-110.319-51.285-59.358-66.901-59.358-175.718 0-242.62l110.336-124.348zM747.145 886.050c22.784 25.685 52.89 39.817 84.787 39.817 31.915 0 62.020-14.131 84.804-39.817 48.265-54.391 48.265-142.899 0-197.291l-84.787-95.59-84.804 95.59c-48.265 54.391-48.265 142.899 0 197.291zM897.775 29.577c-9.199 2.065-18.33-3.703-20.395-12.902-1.963-8.704-5.769-16.708-11.315-23.757-5.82-7.407-4.557-18.142 2.867-23.962 3.14-2.458 6.844-3.652 10.53-3.652 5.069 0 10.069 2.236 13.431 6.519 8.602 10.923 14.746 23.825 17.783 37.342 2.065 9.216-3.703 18.347-12.902 20.412zM546.048 430.933c-7.39 0.017-14.575 1.331-21.367 3.925-8.738 3.328-18.654-1.058-22.033-9.865-3.345-8.806 1.075-18.671 9.865-22.033 10.684-4.062 21.931-6.144 33.502-6.161h6.093c9.438 0 17.067 7.629 17.067 17.067s-7.629 17.067-17.067 17.067h-6.059zM505.532 538.863c3.089 0 6.195 0.836 9.011 2.577 7.561 4.71 15.923 7.595 24.815 8.585 9.37 1.041 16.128 9.472 15.104 18.842s-9.404 16.060-18.842 15.104c-14.029-1.553-27.204-6.093-39.151-13.551-8.004-4.983-10.428-15.514-5.444-23.518 3.243-5.188 8.806-8.038 14.507-8.038zM308.292-29.867h-34.133c-9.438 0-17.067-7.629-17.067-17.067s7.629-17.067 17.067-17.067h34.133c9.438 0 17.067 7.629 17.067 17.067s-7.646 17.067-17.067 17.067zM614.281 277.333c-1.468 0-2.918-0.034-4.369-0.102-9.421-0.375-16.725-8.329-16.35-17.749 0.358-9.182 7.936-16.367 17.033-16.367 0.239 0 0.478 0 0.717 0.017l33.434 0.068c9.438 0 17.067 7.629 17.067 17.067s-7.629 17.067-17.067 17.067h-30.464zM605.747 550.4h34.133c9.438 0 17.067 7.629 17.067 17.067s-7.629 17.067-17.067 17.067h-34.133c-9.438 0-17.067-7.629-17.067-17.067s7.629-17.067 17.067-17.067zM815.411 277.333c-9.438 0-17.067-7.629-17.067-17.067s7.629-17.067 17.067-17.067h34.133c9.438 0 17.067 7.629 17.067 17.067s-7.629 17.067-17.067 17.067h-34.133zM876.39 413.867c0 9.438-7.629 17.067-17.067 17.067h-34.133c-9.438 0-17.067-7.629-17.067-17.067s7.629-17.067 17.067-17.067h34.133c9.421 0 17.067 7.629 17.067 17.067zM713.011 243.2h34.133c9.438 0 17.067 7.629 17.067 17.067s-7.629 17.067-17.067 17.067h-34.133c-9.438 0-17.067-7.629-17.067-17.067s7.646-17.067 17.067-17.067zM742.281 550.4c9.438 0 17.067 7.629 17.067 17.067s-7.629 17.067-17.067 17.067h-34.133c-9.438 0-17.067-7.629-17.067-17.067s7.629-17.067 17.067-17.067h34.133zM620.39 430.933c-9.438 0-17.067-7.629-17.067-17.067s7.629-17.067 17.067-17.067h34.133c9.438 0 17.067 7.629 17.067 17.067s-7.629 17.067-17.067 17.067h-34.133zM773.99 413.867c0 9.438-7.629 17.067-17.067 17.067h-34.133c-9.438 0-17.067-7.629-17.067-17.067s7.629-17.067 17.067-17.067h34.133c9.421 0 17.067 7.629 17.067 17.067zM1014.204 351.881c-1.502 9.318-10.291 15.684-19.558 14.148-9.318-1.485-15.65-10.257-14.148-19.558 0.478-3.038 0.751-6.127 0.717-9.421 0-5.734-0.819-11.401-2.423-16.862-2.645-9.045 2.526-18.534 11.588-21.18 1.604-0.461 3.209-0.683 4.796-0.683 7.39 0 14.199 4.813 16.384 12.271 2.509 8.585 3.789 17.476 3.789 26.334 0.034 4.915-0.341 9.95-1.143 14.95zM717.892-29.867h-34.133c-9.438 0-17.067-7.629-17.067-17.067s7.629-17.067 17.067-17.067h34.133c9.438 0 17.067 7.629 17.067 17.067s-7.646 17.067-17.067 17.067zM615.492-29.867h-34.133c-9.438 0-17.067-7.629-17.067-17.067s7.629-17.067 17.067-17.067h34.133c9.438 0 17.067 7.629 17.067 17.067s-7.646 17.067-17.067 17.067zM803.243 106.667c0 9.438-7.629 17.067-17.067 17.067h-34.133c-9.438 0-17.067-7.629-17.067-17.067s7.629-17.067 17.067-17.067h34.133c9.421 0 17.067 7.629 17.067 17.067zM700.843 106.667c0 9.438-7.629 17.067-17.067 17.067h-34.133c-9.438 0-17.067-7.629-17.067-17.067s7.629-17.067 17.067-17.067h34.133c9.421 0 17.067 7.629 17.067 17.067zM819.081-29.867h-32.939c-9.438 0-17.067-7.629-17.067-17.067s7.629-17.067 17.067-17.067l33.638 0.017 0.495 17.067v-17.067c9.438 0 16.469 7.629 16.469 17.067 0 9.421-8.226 17.050-17.664 17.050zM879.462 60.262c3.686 0 7.424 1.195 10.53 3.652 7.424 5.837 8.687 16.572 2.867 23.962-8.585 10.906-19.661 19.917-32.068 26.078-8.482 4.215-18.688 0.751-22.886-7.68-4.198-8.448-0.751-18.688 7.68-22.886 7.902-3.908 14.967-9.66 20.429-16.623 3.379-4.267 8.38-6.502 13.449-6.502zM944.555 281.958c-7.322-3.072-15.070-4.625-23.074-4.625h-3.669c-9.438 0-17.067-7.629-17.067-17.067s7.629-17.067 17.067-17.067h3.669c12.561 0 24.764 2.458 36.267 7.287 8.704 3.652 12.783 13.653 9.131 22.34-3.635 8.687-13.705 12.783-22.323 9.131zM478.362 450.475c8.943 2.953 13.824 12.595 10.889 21.555-1.963 5.99-2.97 12.254-2.97 18.569 0.017 2.577 0.171 5.154 0.478 7.663 1.178 9.353-5.444 17.903-14.797 19.063-9.643 1.075-17.903-5.478-19.063-14.797-0.478-3.857-0.734-7.782-0.751-11.844 0-10.035 1.57-19.9 4.659-29.321 2.372-7.185 9.045-11.742 16.213-11.742 1.775 0 3.584 0.256 5.342 0.853zM410.692-29.867h-34.133c-9.438 0-17.067-7.629-17.067-17.067s7.629-17.067 17.067-17.067h34.133c9.438 0 17.067 7.629 17.067 17.067s-7.646 17.067-17.067 17.067zM582.349 96.529c6.485 0 12.663 3.703 15.531 9.967 3.908 8.585 0.154 18.705-8.414 22.613-8.004 3.669-15.258 9.182-20.958 15.974-6.076 7.219-16.828 8.158-24.047 2.082-7.219-6.059-8.158-16.828-2.082-24.047 8.943-10.633 20.309-19.302 32.887-25.037 2.304-1.041 4.71-1.553 7.083-1.553zM968.465 418.338c-12.186 7.066-25.498 11.213-39.543 12.322-9.37 0.683-17.613-6.263-18.347-15.684-0.734-9.404 6.281-17.613 15.684-18.347 8.909-0.7 17.357-3.328 25.088-7.817 2.697-1.57 5.649-2.304 8.55-2.304 5.888 0 11.622 3.055 14.78 8.499 4.727 8.141 1.946 18.586-6.212 23.33zM513.092-29.867h-34.133c-9.438 0-17.067-7.629-17.067-17.067s7.629-17.067 17.067-17.067h34.133c9.438 0 17.067 7.629 17.067 17.067s-7.646 17.067-17.067 17.067zM555.605 194.748c1.69 8.772 5.239 16.879 10.564 24.115 5.581 7.578 3.959 18.261-3.635 23.859-7.595 5.564-18.261 3.959-23.859-3.635-8.346-11.366-13.943-24.115-16.606-37.922-1.775-9.25 4.284-18.193 13.551-19.985 1.075-0.205 2.167-0.307 3.226-0.307 8.021 0.034 15.172 5.717 16.759 13.875zM836.147 704c51.746 0 93.867 42.121 93.867 93.867s-42.121 93.867-93.867 93.867-93.867-42.121-93.867-93.867 42.121-93.867 93.867-93.867zM836.147 857.6c32.939 0 59.733-26.795 59.733-59.733s-26.795-59.733-59.733-59.733-59.733 26.795-59.733 59.733 26.812 59.733 59.733 59.733zM213.214 430.933c-56.474 0-102.4-45.926-102.4-102.4s45.926-102.4 102.4-102.4 102.4 45.926 102.4 102.4-45.926 102.4-102.4 102.4zM213.214 260.267c-37.649 0-68.267 30.618-68.267 68.267s30.618 68.267 68.267 68.267 68.267-30.618 68.267-68.267-30.618-68.267-68.267-68.267z" />
<glyph unicode="&#xe942;" glyph-name="search" d="M1024 17l-302.31 302.31c50.181 66.966 80.294 149.78 80.294 239.698 0 221.118-179.874 400.992-400.992 400.992s-400.992-179.874-400.992-400.992 179.874-400.992 400.992-400.992c89.918 0 172.732 30.113 239.698 80.294l302.31-302.31 81 81zM38.19 559.008c0 200.057 162.745 362.802 362.802 362.802s362.802-162.745 362.802-362.802-162.745-362.802-362.802-362.802-362.802 162.745-362.802 362.802z" />
<glyph unicode="&#xe943;" glyph-name="send" d="M497.468 229.196l-40.027-154.243 118.864 121.518-16.156 6.408zM562.066 314.158c-6.77-7.99-18.734-8.978-26.725-2.21-7.99 6.77-8.978 18.734-2.21 26.725l455.052 536.698-988.183-399.478 290.892-117.764 463.111 344.797c5.383 4.544 12.844 5.729 19.37 3.076s11.043-8.707 11.73-15.718c0.686-7.013-2.572-13.826-8.461-17.693l-460.741-343.186 88.394-308.773 61.602 237.879h0.454c0.114 1.359 0.383 2.701 0.796 4 4.053 9.654 15.164 14.196 24.82 10.143l124.078-51.952 258.564-101.666c5.149-2.279 11.068-2.004 15.985 0.739 5.127 2.876 8.628 7.968 9.481 13.785l62.191 415.557 61.735 309.891-461.936-544.849z" />
<glyph unicode="&#xe944;" glyph-name="sign-out" d="M1003.967 520.276c-0.95 2.29-2.327 4.357-4.040 6.088l-223.4 223.381c-7.28 7.28-19.046 7.28-26.326 0s-7.28-19.046 0-26.326l191.637-191.637h-401.892c-10.296 0-18.618-8.322-18.618-18.618s8.322-18.618 18.618-18.618h401.892l-191.637-191.637c-7.28-7.28-7.28-19.046 0-26.326 3.631-3.631 8.397-5.455 13.163-5.455s9.533 1.825 13.163 5.455l223.4 223.4c1.731 1.713 3.091 3.779 4.040 6.070 1.88 4.543 1.88 9.681 0 14.224zM670.273 420.073c-10.296 0-18.618-8.322-18.618-18.618v-297.891h-186.182v707.491c0 8.118-5.25 15.286-12.977 17.743l-295.322 93.966h494.48v-297.891c0-10.296 8.322-18.618 18.618-18.618s18.618 8.322 18.618 18.618v316.509c0 10.296-8.322 18.618-18.618 18.618h-633.018c-0.596 0-1.117-0.279-1.694-0.335-1.043-0.093-1.955-0.335-2.942-0.596-1.75-0.465-3.314-1.098-4.822-2.011-0.484-0.298-1.061-0.298-1.527-0.633-0.577-0.428-1.024-0.968-1.545-1.434-0.317-0.298-0.652-0.559-0.95-0.875-1.415-1.527-2.569-3.221-3.426-5.083-0.168-0.372-0.261-0.745-0.41-1.117-0.782-2.085-1.303-4.264-1.303-6.535v-856.436c0-2.327 0.54-4.524 1.341-6.609 0.261-0.689 0.652-1.266 0.987-1.918 0.689-1.322 1.471-2.532 2.458-3.649 0.54-0.596 1.080-1.136 1.676-1.676 1.080-0.95 2.29-1.731 3.593-2.42 0.689-0.372 1.322-0.763 2.067-1.043 0.317-0.112 0.559-0.335 0.875-0.447l409.6-130.327c1.825-0.559 3.724-0.856 5.623-0.856 3.91 0 7.764 1.229 10.985 3.575 4.803 3.5 7.633 9.086 7.633 15.043v111.709h204.8c10.296 0 18.618 8.322 18.618 18.618v316.509c0 10.296-8.341 18.618-18.618 18.618z" />
<glyph unicode="&#xe945;" glyph-name="sliders" d="M146.286 704c64.347 0 117.614 47.799 126.537 109.714h714.606c10.112 0 18.286 8.174 18.286 18.286s-8.174 18.286-18.286 18.286h-714.606c-8.923 61.915-62.19 109.714-126.537 109.714-70.583 0-128-57.435-128-128s57.417-128 128-128zM146.286 923.429c50.414 0 91.429-41.015 91.429-91.429s-41.015-91.429-91.429-91.429-91.429 41.015-91.429 91.429 41.015 91.429 91.429 91.429zM877.714 192c-64.347 0-117.614-47.799-126.537-109.714h-714.606c-10.094 0-18.286-8.174-18.286-18.286s8.192-18.286 18.286-18.286h714.606c8.923-61.915 62.19-109.714 126.537-109.714 70.565 0 128 57.435 128 128s-57.435 128-128 128zM877.714-27.429c-50.414 0-91.429 41.015-91.429 91.429s41.015 91.429 91.429 91.429 91.429-41.015 91.429-91.429-41.015-91.429-91.429-91.429zM987.429 466.286h-340.699c-7.241 65.865-63.177 117.285-130.944 117.285s-123.703-51.438-130.944-117.285h-348.27c-10.094 0-18.286-8.174-18.286-18.286s8.192-18.286 18.286-18.286h349.422c10.551-62.171 64.658-109.714 129.792-109.714s119.223 47.543 129.774 109.714h341.87c10.112 0 18.286 8.174 18.286 18.286s-8.174 18.286-18.286 18.286zM515.785 356.571c-52.498 0-95.214 42.715-95.214 95.214s42.715 95.214 95.214 95.214 95.214-42.715 95.214-95.214-42.715-95.214-95.214-95.214z" />
<glyph unicode="&#xe946;" glyph-name="snapchat" d="M517.662 26.492c-2.312 0-4.588 0.072-6.864 0.181-1.336-0.112-2.897-0.177-4.473-0.181h-0.006c-53.175 0-87.313 24.131-120.312 47.467-22.794 16.111-44.307 31.302-69.648 35.528-10.974 1.927-23.625 3.042-36.532 3.071h-0.026c-21.422 0-38.328-3.287-50.683-5.708-7.496-1.463-13.962-2.727-18.875-2.727-5.148 0-10.711 1.102-13.131 9.374-2.095 7.171-3.612 14.089-5.075 20.808-3.775 17.267-6.448 27.888-13.691 28.99-84.35 13.041-108.482 30.796-113.864 43.403-0.704 1.583-1.17 3.421-1.298 5.352l-0.003 0.049c-0.009 0.156-0.014 0.339-0.014 0.523 0 4.704 3.418 8.609 7.906 9.367l0.056 0.008c129.65 21.35 187.793 153.872 190.195 159.489l0.217 0.47c7.947 16.075 9.501 30.037 4.642 41.489-8.905 20.952-37.931 30.164-57.131 36.269-4.696 1.481-9.158 2.89-12.662 4.281-38.346 15.172-41.543 30.706-40.026 38.653 2.565 13.492 20.627 22.903 35.221 22.903 4.010 0 7.532-0.704 10.494-2.095 17.249-8.074 32.783-12.156 46.203-12.156 18.514 0 26.606 7.767 27.599 8.796-0.47 8.778-1.066 17.936-1.662 27.4-3.847 61.303-8.634 137.453 10.747 180.947 58.124 130.319 181.399 140.452 217.776 140.452l15.967 0.163h2.149c36.486 0 159.995-10.151 218.155-140.524 19.399-43.53 14.594-119.752 10.729-181.001l-0.163-2.655c-0.542-8.543-1.048-16.834-1.481-24.763 0.921-0.939 8.363-8.11 25.161-8.76h0.018c12.77 0.506 27.455 4.57 43.53 12.102 4.732 2.204 9.97 2.673 13.547 2.673 5.419 0 10.964-1.048 15.533-2.962l0.289-0.126c13.023-4.606 21.548-13.727 21.747-23.282 0.163-8.977-6.683-22.469-40.333-35.763-3.486-1.373-7.947-2.782-12.644-4.281-19.236-6.105-48.244-15.317-57.149-36.269-4.859-11.433-3.305-25.395 4.642-41.489l0.199-0.47c2.42-5.617 60.508-138.104 190.231-159.489 4.786-0.777 8.2-5.057 7.947-9.898-0.135-1.988-0.614-3.832-1.377-5.519l0.041 0.1c-5.346-12.517-29.478-30.254-113.846-43.295-6.882-1.066-9.573-10.043-13.673-28.881-1.499-6.864-3.016-13.583-5.094-20.663-1.806-6.141-5.635-9.031-12.066-9.031h-1.048c-4.479 0-10.837 0.813-18.893 2.402-14.269 2.782-30.29 5.364-50.664 5.364-11.903 0-24.203-1.048-36.594-3.089-25.305-4.227-46.799-19.399-69.539-35.474-33.072-23.391-67.191-47.504-120.403-47.504z" />
<glyph unicode="&#xe947;" glyph-name="speaker" d="M716.8 849.066c-37.65 0-68.266-30.618-68.266-68.266v-12.34l-398.882-159.54c-6.468-2.612-10.718-8.874-10.718-15.854v-238.934c0-6.98 4.25-13.244 10.718-15.838l398.882-159.54v-12.356c0-37.65 30.618-68.266 68.266-68.266s68.266 30.618 68.266 68.266v614.402c0 37.65-30.616 68.266-68.266 68.266zM750.934 166.4c0-18.824-15.308-34.134-34.134-34.134s-34.134 15.308-34.134 34.134v23.894c0 6.998-4.25 13.26-10.734 15.854l-398.866 159.54v215.824l398.866 159.54c6.486 2.612 10.734 8.874 10.734 15.854v23.894c0 18.824 15.308 34.134 34.134 34.134s34.134-15.308 34.134-34.134v-614.4zM256 610.134h-119.466c-75.282 0-136.534-61.252-136.534-136.534s61.252-136.534 136.534-136.534h119.466c9.42 0 17.066 7.628 17.066 17.066v238.934c0 9.422-7.646 17.068-17.066 17.068zM238.934 371.2h-102.4c-56.474 0-102.4 45.926-102.4 102.4s45.926 102.4 102.4 102.4h102.4v-204.8zM875.794 540.996l-102.4 34.134c-5.222 1.724-10.906 0.854-15.378-2.356-4.454-3.208-7.082-8.362-7.082-13.842v-170.666c0-5.478 2.628-10.632 7.082-13.858 2.952-2.116 6.452-3.208 9.984-3.208 1.81 0 3.636 0.29 5.394 0.888l102.4 34.134c6.98 2.304 11.674 8.824 11.674 16.18v102.4c-0.002 7.354-4.694 13.856-11.674 16.194zM853.334 434.706l-68.266-22.75v123.306l68.266-22.75v-77.806zM339.746 140.92l-17.134 17.152-50.056 200.192c-1.894 7.594-8.722 12.936-16.554 12.936h-136.536c-5.222 0-10.138-2.39-13.38-6.452-3.242-4.096-4.438-9.438-3.242-14.524l68.266-290.134c1.86-7.834 8.84-13.158 16.606-13.158 1.076 0 2.15 0.102 3.242 0.324l128.17 24.746c0.17 0.034 0.342 0.068 0.512 0.102 7.51 1.69 14.37 5.444 19.832 10.82 7.782 7.698 12.1 17.938 12.168 28.894 0.070 10.942-4.128 21.25-11.894 29.102zM315.494 107.23c-0.87-0.87-1.962-1.468-3.158-1.774l-111.736-21.59-59.58 253.202h101.65l47.992-191.864c0.75-3.004 2.304-5.752 4.488-7.936l20.412-20.412c1.724-1.724 1.962-3.754 1.962-4.83-0.016-1.042-0.288-3.072-2.030-4.796zM921.6 490.666h102.4v-34.134h-102.4v34.134zM912.785 641.787l85.323 51.21 17.564-29.265-85.323-51.21-17.564 29.265zM912.938 305.374l17.562 29.27 85.335-51.201-17.562-29.27-85.335 51.201zM648.534 763.734h34.134v-580.266h-34.134v580.266zM170.666 541.866h34.134v-68.266h-34.134v68.266zM102.4 541.866h34.134v-68.266h-34.134v68.266z" />
<glyph unicode="&#xe948;" glyph-name="star" d="M206.882-39.824c-3.794 0-7.588 1.173-10.778 3.501-5.645 4.106-8.468 11.053-7.277 17.926l56.656 330.256-239.948 233.863c-4.986 4.876-6.782 12.152-4.637 18.769 2.163 6.635 7.9 11.474 14.81 12.482l331.576 48.188 148.302 300.471c3.079 6.269 9.458 10.228 16.423 10.228v0c6.983 0 13.362-3.959 16.423-10.228l148.284-300.471 331.594-48.188c6.91-1.008 12.629-5.829 14.81-12.482 2.145-6.617 0.367-13.912-4.637-18.769l-239.948-233.9 56.637-330.238c1.173-6.873-1.65-13.82-7.277-17.926-5.645-4.142-13.142-4.674-19.319-1.393l-296.567 155.909-296.604-155.909c-2.676-1.393-5.609-2.090-8.523-2.090zM57.719 546.052l220.244-214.69c4.307-4.197 6.287-10.283 5.26-16.221l-52-303.129 272.263 143.115c5.334 2.823 11.694 2.823 17.065 0l272.226-143.115-51.982 303.129c-1.026 5.939 0.953 12.006 5.26 16.221l220.244 214.69-304.357 44.228c-5.975 0.861-11.126 4.619-13.802 10.026l-136.131 275.782-136.131-275.8c-2.676-5.407-7.827-9.165-13.802-10.026l-304.357-44.21z" />
<glyph unicode="&#xe949;" glyph-name="star-alt" d="M1023.102 564.492c-2.163 6.635-7.9 11.474-14.81 12.482l-331.576 48.188-148.284 300.453c-3.079 6.269-9.458 10.228-16.423 10.228s-13.362-3.959-16.423-10.228l-148.302-300.471-331.576-48.188c-6.91-1.008-12.629-5.829-14.81-12.482-2.145-6.617-0.367-13.912 4.637-18.769l239.948-233.881-56.656-330.256c-1.173-6.873 1.65-13.82 7.277-17.926 5.664-4.142 13.16-4.674 19.301-1.393l296.604 155.909 296.567-155.909c2.676-1.411 5.627-2.108 8.541-2.108 3.794 0 7.57 1.173 10.778 3.501 5.645 4.106 8.468 11.053 7.277 17.926l-56.637 330.238 239.948 233.9c4.986 4.894 6.782 12.171 4.619 18.787z" />
<glyph unicode="&#xe94a;" glyph-name="trophy" d="M904.534 823.466h-119.466v37.070c19.862 7.048 34.132 26.018 34.132 48.264 0 28.228-22.972 51.2-51.2 51.2h-512c-28.228 0-51.2-22.972-51.2-51.2 0-22.246 14.27-41.216 34.134-48.264v-37.070h-119.468c-9.438 0-17.066-7.628-17.066-17.066v-68.266c0-103.106 60.526-194.484 154.914-235.006 31.542-81.292 100.924-143.866 186.418-165.954v-42.774c-9.438 0-17.066-7.628-17.066-17.066v-68.266h-17.066c-28.228 0-51.2-22.972-51.2-51.2v-20.004c-19.862-7.046-34.134-26.018-34.134-48.264v-136.534c0-9.438 7.628-17.066 17.066-17.066h341.334c9.438 0 17.066 7.628 17.066 17.066v136.534c0 22.246-14.27 41.216-34.134 48.264v20.004c0 28.228-22.972 51.2-51.2 51.2h-17.066v68.266c0 9.438-7.628 17.066-17.066 17.066v42.774c85.494 22.088 154.878 84.662 186.418 165.954 94.388 40.522 154.914 131.9 154.914 235.006v68.266c0.002 9.438-7.626 17.066-17.064 17.066zM256 925.866h512c9.42 0 17.066-7.646 17.066-17.066s-7.646-17.066-17.066-17.066h-512c-9.42 0-17.066 7.646-17.066 17.066s7.646 17.066 17.066 17.066zM136.534 738.134v51.2h102.4v-187.734c0-18.338 1.83-36.254 5.294-53.588-66.41 39.598-107.694 110.862-107.694 190.122zM358.4-29.866v34.134h51.2c9.438 0 17.066 7.628 17.066 17.066s-7.628 17.066-17.066 17.066h-51.2v51.2c0 9.42 7.646 17.066 17.066 17.066h273.066c9.42 0 17.066-7.646 17.066-17.066v-17.066h-51.2c-9.438 0-17.066-7.628-17.066-17.066s7.628-17.066 17.066-17.066h51.2v-68.266h-307.198zM631.466 157.866v-17.066h-238.932v17.066c0 9.42 7.646 17.066 17.066 17.066h204.8c9.42 0.002 17.066-7.644 17.066-17.066zM460.8 209.066v51.2h102.4v-51.2h-102.4zM546.134 294.4h-68.266v36.264c2.694-0.338 5.402-0.626 8.12-0.884 0.364-0.034 0.726-0.064 1.090-0.098 2.346-0.214 4.702-0.396 7.064-0.55 0.47-0.030 0.94-0.062 1.41-0.090 2.404-0.144 4.816-0.256 7.234-0.338 0.306-0.010 0.61-0.026 0.916-0.034 2.758-0.082 5.522-0.138 8.298-0.138 2.778 0 5.542 0.054 8.298 0.138 0.306 0.010 0.61 0.024 0.916 0.034 2.42 0.080 4.832 0.194 7.236 0.338 0.47 0.028 0.94 0.060 1.41 0.090 2.364 0.154 4.718 0.336 7.066 0.55 0.362 0.034 0.726 0.062 1.088 0.096 2.718 0.258 5.426 0.546 8.12 0.884v-36.262zM554.546 366.464c-0.114-0.020-0.226-0.044-0.338-0.064-0.916-0.164-1.84-0.306-2.76-0.458-26.050-4.312-52.836-4.312-78.886-0.002-0.922 0.154-1.85 0.296-2.768 0.46-0.11 0.020-0.22 0.042-0.33 0.062-83.956 15.146-152.798 74.298-181.708 152.632-0.162 0.852-0.38 1.698-0.676 2.532-8.108 22.824-12.722 46.204-13.774 69.634-0.010 0.232-0.018 0.466-0.026 0.7-0.134 3.214-0.21 6.428-0.21 9.64v256h477.866v-256c0-3.214-0.076-6.428-0.21-9.64-0.010-0.232-0.016-0.466-0.026-0.7-1.052-23.43-5.666-46.812-13.774-69.634-0.296-0.834-0.514-1.68-0.676-2.532-28.912-78.332-97.752-137.482-181.704-152.63zM887.466 738.134c0-79.258-41.284-150.524-107.694-190.122 3.464 17.334 5.294 35.252 5.294 53.588v187.734h102.4v-51.2zM600.764 686.574l-50.586 10.376-22.732 48.436c-2.816 5.974-8.824 9.814-15.446 9.814s-12.63-3.84-15.446-9.814l-22.732-48.436-50.586-10.376c-6.212-1.262-11.212-5.888-12.97-11.998-1.74-6.11 0.034-12.68 4.642-17.066l36.318-34.628-7.322-53.078c-0.904-6.434 1.946-12.818 7.322-16.47 5.394-3.636 12.34-3.942 18.022-0.7l42.752 24.356 42.752-24.354c2.628-1.502 5.546-2.236 8.448-2.236 3.346 0 6.69 0.99 9.574 2.936 5.376 3.652 8.226 10.036 7.322 16.47l-7.322 53.078 36.318 34.628c4.608 4.386 6.382 10.956 4.642 17.066-1.758 6.108-6.758 10.734-12.97 11.996zM542.908 641.57c-3.994-3.788-5.888-9.25-5.138-14.694l3.772-27.444-21.094 12.014c-2.612 1.484-5.53 2.236-8.448 2.236s-5.836-0.75-8.448-2.236l-21.094-12.014 3.772 27.444c0.75 5.444-1.144 10.906-5.138 14.694l-19.012 18.124 26.982 5.546c5.274 1.076 9.746 4.574 12.014 9.454l10.924 23.264 10.922-23.262c2.27-4.882 6.742-8.38 12.016-9.454l26.982-5.546-19.012-18.126z" />
<glyph unicode="&#xe94b;" glyph-name="trophy-2" d="M631.624 482.204c181.112 52.818 307.044 220.29 307.044 409.528 0 9.438-7.646 17.066-17.066 17.066h-170.674v34.136c0 9.438-7.628 17.066-17.066 17.066h-443.736c-9.42 0-17.066-7.628-17.066-17.066v-34.134h-170.66c-9.42 0-17.066-7.628-17.066-17.066 0-189.274 125.978-356.77 307.144-409.558 6.908-9.694 14.070-19.232 21.536-28.562 4.182-4.642 101.376-115.268 3.362-242.74-0.444-0.568-0.836-1.18-1.204-1.81h-6.572c-28.228 0-51.2-22.972-51.2-51.2v-20.004c-19.862-7.046-34.134-26.018-34.134-48.264v-136.534c0-9.438 7.646-17.066 17.066-17.066h341.334c9.42 0 17.066 7.628 17.066 17.066v136.538c0 22.246-14.27 41.216-34.134 48.264v20.004c0 28.228-22.972 51.2-51.2 51.2h-6.58c-0.366 0.63-0.76 1.24-1.192 1.81-98.014 127.47-0.836 238.098 4.028 243.524 7.264 9.078 14.236 18.364 20.97 27.802zM750.934 874.666h153.224c-6.674-152.864-102.434-287.862-242.158-345.684 1.368 2.324 2.722 4.656 4.060 6.994 1.238 2.152 2.456 4.312 3.668 6.476 0.46 0.826 0.926 1.646 1.382 2.474 48.024 86.706 75.068 182.778 79.234 282.24 0 0.020 0.002 0.040 0.002 0.060 0.176 4.214 0.314 8.432 0.408 12.656 0.010 0.432 0.024 0.862 0.032 1.294 0.088 4.372 0.148 8.746 0.148 13.13v20.36zM362.002 528.982c-139.726 57.822-235.486 192.818-242.16 345.684h153.218v-20.36c0-0.936 0.026-1.872 0.030-2.808 0.014-3.122 0.042-6.242 0.1-9.356 0.026-1.38 0.068-2.758 0.104-4.138 0.078-3.114 0.178-6.226 0.3-9.334 0.036-0.876 0.070-1.754 0.11-2.63 4.59-105.194 34.762-206.58 88.298-297.058zM358.4-29.866v34.134h51.2c9.42 0 17.066 7.628 17.066 17.066s-7.646 17.066-17.066 17.066h-51.2v51.2c0 9.42 7.662 17.066 17.066 17.066h273.066c9.404 0 17.066-7.646 17.066-17.066v-17.066h-51.2c-9.42 0-17.066-7.628-17.066-17.066s7.646-17.066 17.066-17.066h51.2v-68.266h-307.198zM631.466 157.866v-17.066h-238.932v17.066c0 9.42 7.662 17.066 17.066 17.066h204.8c9.404 0.002 17.066-7.644 17.066-17.066zM566.128 209.066h-108.254c92.314 142.574-17.39 266.172-17.886 266.666-7.778 9.724-15.23 19.678-22.368 29.836-0.222 0.374-0.412 0.762-0.666 1.122-10.932 15.612-21.068 31.64-30.418 48.024-0.532 0.936-1.064 1.87-1.59 2.81-1.040 1.846-2.064 3.702-3.084 5.558-1.58 2.89-3.154 5.784-4.686 8.698-0.056 0.104-0.112 0.21-0.166 0.314-41.256 78.56-65.11 165.812-69.178 254.888-0.034 0.766-0.078 1.532-0.11 2.3-0.12 2.892-0.2 5.788-0.28 8.684-0.038 1.406-0.092 2.808-0.12 4.214-0.044 2.204-0.050 4.41-0.072 6.616-0.016 1.836-0.052 3.672-0.052 5.51v37.428c0 0.046-0.006 0.090-0.006 0.136v33.996h409.6v-71.56c0-89.786-20.23-178.436-58.044-258.762-0.82-1.73-1.66-3.452-2.496-5.176-0.658-1.364-1.314-2.728-1.982-4.088-13.608-27.488-29.368-54.084-47.228-79.588-0.416-0.592-0.762-1.218-1.094-1.848-6.796-9.628-13.864-19.074-21.236-28.292-1.176-1.28-110.896-124.91-18.584-267.486z" />
<glyph unicode="&#xe94c;" glyph-name="tumblr" d="M223.904 517.696h96.704v-327.584q0-59.264 13.248-97.504 14.816-35.104 46.016-62.4 30.432-28.064 80.352-46.016 47.584-16.384 108.416-16.384 53.024 0 99.072 11.712 39.776 7.808 103.744 38.208v146.624q-64.736-44.448-134.144-44.448-34.304 0-68.64 17.952-20.288 13.248-30.432 36.672-7.808 25.728-7.808 103.744v239.456h210.592v146.624h-210.592v234.784h-126.368q-6.24-66.304-30.432-117.792-24.192-49.92-60.832-79.552-38.208-35.872-88.928-51.488v-132.608z" />
<glyph unicode="&#xe94d;" glyph-name="twitter" d="M1024 765.504c-38.080-16.704-78.656-27.776-120.96-33.152 43.52 25.984 76.736 66.816 92.352 116.032-40.576-24.192-85.376-41.28-133.12-50.816-38.528 41.024-93.44 66.432-153.344 66.432-116.224 0-209.792-94.336-209.792-209.984 0-16.64 1.408-32.64 4.864-47.872-174.528 8.512-328.96 92.16-432.704 219.584-18.112-31.424-28.736-67.392-28.736-106.112 0-72.704 37.44-137.152 93.248-174.464-33.728 0.64-66.816 10.432-94.848 25.856 0-0.64 0-1.472 0-2.304 0-102.016 72.768-186.752 168.192-206.272-17.088-4.672-35.712-6.912-55.040-6.912-13.44 0-27.008 0.768-39.744 3.584 27.2-83.136 104.384-144.256 196.16-146.24-71.424-55.872-162.112-89.536-260.288-89.536-17.216 0-33.728 0.768-50.24 2.88 92.992-59.968 203.2-94.208 322.048-94.208 386.304 0 597.504 320 597.504 597.376 0 9.28-0.32 18.24-0.768 27.136 41.664 29.568 76.672 66.496 105.216 108.992z" />
<glyph unicode="&#xe94e;" glyph-name="typography" d="M1006.934 874.666h-716.8c-9.438 0-17.066-7.646-17.066-17.066v-153.6c0-6.894 4.164-13.124 10.53-15.77 6.382-2.646 13.704-1.178 18.602 3.704l60.33 60.33c12.902 12.902 30.054 20.002 48.282 20.002h169.454c9.42 0 17.066-7.662 17.066-17.066v-631.466h-136.532c-9.438 0-17.066-7.646-17.066-17.066v-68.268c0-9.42 7.628-17.066 17.066-17.066h375.466c9.438 0 17.066 7.646 17.066 17.066v68.266c0 9.42-7.628 17.066-17.066 17.066h-136.534v631.468c0 9.404 7.646 17.066 17.066 17.066h169.454c18.228 0 35.38-7.1 48.282-19.986l60.33-60.348c4.898-4.898 12.236-6.366 18.602-3.704 6.366 2.646 10.53 8.874 10.53 15.77v153.602c0.004 9.42-7.624 17.066-17.062 17.066zM256 192h-102.4v665.6c0 9.42-7.628 17.066-17.066 17.066s-17.066-7.646-17.066-17.066v-665.6h-102.4c-6.708 0-12.766-3.908-15.53-10.018-2.782-6.092-1.724-13.244 2.68-18.296l119.466-136.534c3.26-3.686 7.936-5.82 12.852-5.82s9.608 2.134 12.852 5.82l119.466 136.534c4.404 5.052 5.462 12.202 2.68 18.296-2.768 6.11-8.826 10.018-15.534 10.018z" />
<glyph unicode="&#xe94f;" glyph-name="user" d="M819.439 228.028l-163.038 81.51c-15.377 7.697-24.934 23.159-24.934 40.363v57.702c3.908 4.779 8.021 10.223 12.271 16.23 21.146 29.867 38.093 63.113 50.415 98.97 24.081 11.042 39.714 34.85 39.714 61.73v68.267c0 16.435-6.144 32.358-17.067 44.8v90.778c0.956 9.387 4.71 65.263-35.703 111.36-35.055 39.987-91.938 60.262-169.097 60.262s-134.042-20.275-169.097-60.245c-40.414-46.097-36.659-101.99-35.703-111.377v-90.778c-10.923-12.442-17.067-28.365-17.067-44.8v-68.267c0-20.77 9.438-40.141 25.549-53.060 15.633-61.901 48.35-108.544 59.785-123.511v-56.474c0-16.521-9.011-31.676-23.501-39.595l-152.252-83.046c-49.51-27.017-80.247-78.797-80.247-135.185v-55.262c0-80.998 256.768-102.4 392.533-102.4s392.533 21.402 392.533 102.4v51.934c0 58.675-32.614 111.445-85.094 137.694z" />
<glyph unicode="&#xe950;" glyph-name="view" d="M1011.488 478.17l-178.172 178.172c-177.148 177.19-465.484 177.19-642.632 0l-178.172-178.172c-16.682-16.682-16.682-43.647 0-60.329l178.172-178.172c88.574-88.574 204.924-132.903 321.315-132.903s232.741 44.329 321.315 132.903l178.172 178.172c16.684 16.682 16.684 43.647 0.002 60.329zM511.999 234.678c-117.629 0-213.329 95.7-213.329 213.329s95.7 213.329 213.329 213.329 213.329-95.7 213.329-213.329-95.7-213.329-213.329-213.329zM511.999 576.002c-70.568 0-127.997-57.429-127.997-127.997s57.429-127.997 127.997-127.997 127.997 57.429 127.997 127.997-57.427 127.997-127.997 127.997z" />
<glyph unicode="&#xe951;" glyph-name="vimeo" d="M10.976 611.136l46.016-61.632q63.968 47.584 77.216 47.584 50.688 0 94.368-161.472l38.208-144.672q26.496-100.224 41.344-154.048 57.728-161.472 145.088-161.472 138.848 0 336.96 266.752 194.208 253.504 201.216 400.896v17.152q0 179.392-143.52 184.064h-10.912q-192.64 0-265.184-236.32 42.112 17.952 73.312 17.952 66.304 0 66.304-68.64 0-8.576-0.768-17.952-4.672-55.392-65.504-151.328-62.4-100.608-92.832-100.608-40.544 0-71.744 152.864-9.376 35.872-39.776 231.648-13.248 84.224-49.152 124.8-31.2 35.104-77.984 35.872-6.24 0-13.248-0.768-49.152-4.672-145.856-89.696-49.92-46.784-143.52-131.040z" />
<glyph unicode="&#xe952;" glyph-name="youtube" d="M980.48 732.16c-27.776 49.408-57.92 58.496-119.296 61.952-61.312 4.16-215.488 5.888-349.056 5.888-133.824 0-288.064-1.728-349.312-5.824-61.248-3.52-91.456-12.544-119.488-62.016-28.608-49.344-43.328-134.336-43.328-283.968 0-0.128 0-0.192 0-0.192 0-0.128 0-0.192 0-0.192v-0.128c0-148.992 14.72-234.624 43.328-283.456 28.032-49.408 58.176-58.368 119.424-62.528 61.312-3.584 215.552-5.696 349.376-5.696 133.568 0 287.744 2.112 349.12 5.632 61.376 4.16 91.52 13.12 119.296 62.528 28.864 48.832 43.456 134.464 43.456 283.456 0 0 0 0.192 0 0.32 0 0 0 0.128 0 0.192 0 149.696-14.592 234.688-43.52 284.032zM384 256v384l320-192-320-192z" />
</font>
</defs>
</svg>
